<?xml version="1.0" encoding="utf-8"?>
<!-- Generator: Adobe Illustrator 26.2.1, SVG Export Plug-In . SVG Version: 6.00 Build 0)  -->
<svg version="1.1" xmlns="http://www.w3.org/2000/svg" xmlns:xlink="http://www.w3.org/1999/xlink" x="0px" y="0px"
	 viewBox="0 0 1491.2 207" style="enable-background:new 0 0 1491.2 207;" xml:space="preserve">
<style type="text/css">
	.st0{fill:#00355F;}
	.st1{fill:#00A4E2;}
	.st2{fill:#FFFFFF;}
	.st3{fill:none;stroke:#00355F;stroke-width:1.13;}
	.st4{fill:none;stroke:#00355F;stroke-width:0.754;stroke-linecap:round;}
	.st5{clip-path:url(#SVGID_00000025401988027605895300000000624699679242677642_);fill:#00355F;}
	.st6{fill:#FFD24F;}
	.st7{clip-path:url(#SVGID_00000137821414800638992630000006530396523214599075_);fill:none;stroke:#00355F;stroke-width:1.314;}
	.st8{fill:none;stroke:#00355F;stroke-width:0.657;}
	.st9{fill:none;stroke:#00355F;stroke-width:0.821;}
	.st10{fill:none;stroke:#00355F;stroke-width:0.926;}
	.st11{fill:none;stroke:#00355F;stroke-width:0.986;}
	.st12{fill:none;stroke:#00355F;stroke-width:1.019;}
	.st13{fill:none;stroke:#00355F;stroke-width:1.15;}
	
		.st14{clip-path:url(#SVGID_00000034054264538604447080000014218395183689923767_);fill:none;stroke:#00355F;stroke-width:0.795;stroke-linecap:round;stroke-linejoin:round;}
	
		.st15{clip-path:url(#SVGID_00000034789068559832624700000011709811036502190745_);fill:none;stroke:#00355F;stroke-width:0.795;stroke-linecap:round;stroke-linejoin:round;}
	
		.st16{clip-path:url(#SVGID_00000142158369390475847590000017734500306553933498_);fill:none;stroke:#00355F;stroke-width:0.795;stroke-linecap:round;stroke-linejoin:round;}
	.st17{fill:none;stroke:#00355F;stroke-width:0.795;stroke-linecap:round;stroke-linejoin:round;}
	
		.st18{clip-path:url(#SVGID_00000124841818130864259140000008294023903905724330_);fill:none;stroke:#00355F;stroke-width:0.795;stroke-linecap:round;}
	.st19{fill:none;stroke:#00355F;stroke-width:0.795;stroke-linecap:round;}
	.st20{fill:none;stroke:#000000;stroke-width:0.795;stroke-linecap:round;}
	
		.st21{clip-path:url(#SVGID_00000027604097511908356920000004888736263880482181_);fill:none;stroke:#00355F;stroke-width:0.795;stroke-linecap:round;}
	
		.st22{clip-path:url(#SVGID_00000129205642407437397990000011737476668997686202_);fill:none;stroke:#00355F;stroke-width:0.795;stroke-linecap:round;stroke-linejoin:round;}
	
		.st23{clip-path:url(#SVGID_00000152965508281320138580000014608720272682103197_);fill:none;stroke:#00355F;stroke-width:0.795;stroke-linecap:round;stroke-linejoin:round;}
	
		.st24{clip-path:url(#SVGID_00000181083257964469486570000001530238346039547264_);fill:none;stroke:#00355F;stroke-width:0.795;stroke-linecap:round;stroke-linejoin:round;}
	.st25{fill:#FDC141;}
	.st26{fill:#092F44;}
	.st27{fill:#D8AB27;}
</style>
<g id="Layer_2">
</g>
<g id="Layer_1">
	<path class="st0" d="M903.4,72.3c0,1.3-0.8,32.9,4.2,52c5.2,18.6,18.8,38.6,39.4,57.8l1,0.9l1-0.9c20.6-19.2,34.2-39.2,39.4-57.8
		c2.1-8.1,3.5-19.3,4-33.3c0.2-5.5,0.3-10.3,0.3-13.3c0-6,0-6-0.6-6.5l-0.4-0.3h-43.6h-44.5L903.4,72.3"/>
	<path class="st1" d="M991.1,72.3H948h-43.1c0,0-0.9,32.5,4.2,51.6c5.5,19.7,20.1,39.5,39,57.2l0,0l0,0c18.9-17.6,33.5-37.5,39-57.2
		C992,104.8,991.1,72.3,991.1,72.3"/>
	<path class="st0" d="M962.5,79.4h-31.6l1.4,2.2c10.4,16.1,9.8,21.9,9,23.6c-0.5,1.1-1.3,1.3-1.4,1.3c-7.2,0.9-17.5-6.3-17.6-6.4
		l-2.3-1.6v30.6l2.5-2.5c8.6-8.6,13.3-9.8,15.3-9.8c1.3,0,1.8,0.5,1.8,0.6c5.9,7.6-2.9,25.1-6.7,31.1l-1.4,2.2h2.6h30.3l-1.4-2.2
		c-0.1-0.2-13.9-22-6.7-31.2c0,0,0.5-0.5,1.8-0.5c2,0,6.7,1.2,15.3,9.8l2.5,2.5V98.6l-2.3,1.6c-0.1,0.1-10.4,7.3-17.6,6.4
		c-0.1,0-0.9-0.2-1.4-1.3c-0.7-1.7-1.4-7.5,9-23.6l1.4-2.2L962.5,79.4"/>
	<path class="st2" d="M974.5,125.7v-24.3c0,0-10.7,7.6-18.6,6.6c0,0-10.1-1.3,6.6-27.2h-29c16.7,25.9,6.6,27.2,6.6,27.2
		c-7.9,1-18.6-6.6-18.6-6.6v24.3c14.8-14.8,19.3-9.2,19.3-9.2c7.9,10.1-6.6,32.9-6.6,32.9h27.7c0,0-14.5-22.7-6.6-32.9
		C955.2,116.5,959.6,110.9,974.5,125.7"/>
	<path class="st0" d="M927,67.1c3.3-0.5,4.7-2.2,5.4-2.5c0.7-0.3,1.8-2.2-0.2-2.2s-3-2.3-6.3-3c-3.3-0.8-7.3-0.3-6.6,1.2
		C920.9,64.1,923.7,67.5,927,67.1"/>
	<path class="st3" d="M927,67.1c3.3-0.5,4.7-2.2,5.4-2.5c0.7-0.3,1.8-2.2-0.2-2.2s-3-2.3-6.3-3c-3.3-0.8-7.3-0.3-6.6,1.2
		C920.9,64.1,923.7,67.5,927,67.1z"/>
	<path class="st2" d="M932,65.2c0,0,0.9,2.4,4.2,1.9c3.3-0.5,4.7-2.2,5.4-2.5s1.8-2.2-0.2-2.2s-3-2.3-6.3-3
		c-3.3-0.8-7.9,0.2-6.6,1.2C931.5,62.7,932,65.2,932,65.2"/>
	<path class="st3" d="M932,65.2c0,0,0.9,2.4,4.2,1.9c3.3-0.5,4.7-2.2,5.4-2.5s1.8-2.2-0.2-2.2s-3-2.3-6.3-3
		c-3.3-0.8-7.9,0.2-6.6,1.2C931.5,62.7,932,65.2,932,65.2z"/>
	<path class="st2" d="M936.1,65.4c1.3-0.1,2.2-0.6,2.6-0.9"/>
	<path class="st4" d="M936.1,65.4c1.3-0.1,2.2-0.6,2.6-0.9"/>
	<path class="st0" d="M941.3,65.2c0,0,0.9,2.4,4.2,1.9s4.7-2.2,5.4-2.5s1.8-2.2-0.2-2.2s-3-2.3-6.3-3c-3.3-0.8-7.9,0.2-6.6,1.2
		C940.8,62.7,941.3,65.2,941.3,65.2"/>
	<path class="st3" d="M941.3,65.2c0,0,0.9,2.4,4.2,1.9s4.7-2.2,5.4-2.5s1.8-2.2-0.2-2.2s-3-2.3-6.3-3c-3.3-0.8-7.9,0.2-6.6,1.2
		C940.8,62.7,941.3,65.2,941.3,65.2z"/>
	<path class="st2" d="M950.1,65.2c0,0,0.9,2.4,4.2,1.9s4.7-2.2,5.4-2.5c0.7-0.3,1.8-2.2-0.2-2.2s-3-2.3-6.3-3
		c-3.3-0.8-7.9,0.2-6.6,1.2C949.6,62.7,950.1,65.2,950.1,65.2"/>
	<path class="st3" d="M950.1,65.2c0,0,0.9,2.4,4.2,1.9s4.7-2.2,5.4-2.5c0.7-0.3,1.8-2.2-0.2-2.2s-3-2.3-6.3-3
		c-3.3-0.8-7.9,0.2-6.6,1.2C949.6,62.7,950.1,65.2,950.1,65.2z"/>
	<path class="st0" d="M959.3,65.2c0,0,0.9,2.4,4.2,1.9s4.7-2.2,5.4-2.5s1.8-2.2-0.2-2.2s-3-2.3-6.3-3c-3.3-0.8-7.9,0.2-6.6,1.2
		C958.8,62.7,959.3,65.2,959.3,65.2"/>
	<path class="st3" d="M959.3,65.2c0,0,0.9,2.4,4.2,1.9s4.7-2.2,5.4-2.5s1.8-2.2-0.2-2.2s-3-2.3-6.3-3c-3.3-0.8-7.9,0.2-6.6,1.2
		C958.8,62.7,959.3,65.2,959.3,65.2z"/>
	<path class="st2" d="M954.4,65.3c1.3-0.1,2.2-0.6,2.6-0.9"/>
	<path class="st4" d="M954.4,65.3c1.3-0.1,2.2-0.6,2.6-0.9"/>
	<path class="st2" d="M976,61.6c-1.1-0.7-2.2-1.8-4.2-2.3c-3.3-0.8-7.9,0.2-6.6,1.2c2.9,2.2,3.4,4.7,3.4,4.7s0.9,2.4,4.2,1.9
		c3.1-0.4,4.5-2,5.3-2.4C977.8,64,977.2,62.8,976,61.6"/>
	<path class="st3" d="M976,61.6c-1.1-0.7-2.2-1.8-4.2-2.3c-3.3-0.8-7.9,0.2-6.6,1.2c2.9,2.2,3.4,4.7,3.4,4.7s0.9,2.4,4.2,1.9
		c3.1-0.4,4.5-2,5.3-2.4C977.8,64,977.2,62.8,976,61.6z"/>
	<path class="st2" d="M972.8,65.3c1.3-0.1,2.2-0.6,2.6-0.9"/>
	<path class="st4" d="M972.8,65.3c1.3-0.1,2.2-0.6,2.6-0.9"/>
	<g>
		<g>
			<defs>
				<rect id="SVGID_1_" x="871.8" y="0.9" width="152.2" height="206.1"/>
			</defs>
			<clipPath id="SVGID_00000038377870759516500400000010025064281254914741_">
				<use xlink:href="#SVGID_1_"  style="overflow:visible;"/>
			</clipPath>
			<path style="clip-path:url(#SVGID_00000038377870759516500400000010025064281254914741_);fill:#00355F;" d="M935.7,4.2
				c-0.9-2.7-4.5-4-8.1-2.9c-3.6,1-5.9,4-5,6.7c0.9,2.7,4.5,4,8.1,2.9C934.4,9.9,936.6,6.8,935.7,4.2 M930,8.6
				c-1.8,0.5-3.7-0.2-4.1-1.6c-0.5-1.4,0.6-3,2.5-3.5c1.8-0.5,3.7,0.2,4.1,1.6C932.9,6.5,931.8,8.1,930,8.6z"/>
		</g>
	</g>
	<path class="st6" d="M957.3,13.3l2.3,2.6l-1.7,0.1h-0.3c0,0,2.9,6.2,5.9,7.3c0,0-2.1,2.6-3.9,1.4c0,0,1.7,4.5,4,5.5
		c0,0-1.2,2.5-4.3,0.8c0,0,1.3,3.6,5.1,5c0,0-1.9,1.7-4,1.1c0.8,3.5,4.5,4.6,4.5,4.6s-1.7,2.5-4.2,1.6c0,0,1.1,3.1,4.7,4.8
		c0,0-2.3,0.8-4.6,0.2c2.2,2.6,6.2,3.1,6.2,3.1s-2.1,1.8-5.1,0.9l0.1,0.2c0.9,1.6,4.6,2.5,4.6,2.5c-4.4,2.5-10.3-2.2-10.3-2.2
		c-1.8,3.5-6.2,4.2-6.2,4.2l-0.9-2.7c-2.3,3.2-7.4,2.6-9.2,2.4c2.4-1.3,3.6-4.2,3.6-4.2c-3.7,3.7-14.3,1.8-14.3,1.8
		c4.2-0.2,7.6-4.6,7.6-4.6c-3.2,0-4.8-1.8-4.8-1.8c6.3-2.6,7.8-6.6,7.8-6.6h-4.4c2.9-1.2,7.2-6.2,7.2-6.2l-4.4,0.9
		c4.4-2.8,5.1-5.6,5.1-5.6s-0.9,0.2-2.7,0.1c1.9-1.2,2.7-3.4,2.7-3.4v-0.3c0-3.1-8.5-4.3-8.5-4.3l-0.3-0.1c-1-0.2-4.9-1.4-4.9-1.4
		c-1-1.6,4.7-0.6,4.7-0.6h0.3c6.9,0.8,6.9,0.3,6.9,0.3s1.3,3.4,0.2,0.5c-2.2-5.7-7.6-3.6-7.6-3.6c-3-4.1-8-1.2-8-1.2
		s1.1-9.1,6.6-5.7l0.3-0.6c0,0,1.8-1.7,3.7-0.9h0.2c0,0,5.5-7.3,12-0.9c0,0,3.6-0.9,6.3,0.6c0,0,3.5,1.8,6.4-1.2c0,0-0.1,5.3-6,5.7"
		/>
	<g>
		<g>
			<defs>
				<rect id="SVGID_00000026862781004884460660000006206700344408181928_" x="871.8" y="0.9" width="152.2" height="206.1"/>
			</defs>
			<clipPath id="SVGID_00000057859510628291066390000014587862984971475102_">
				<use xlink:href="#SVGID_00000026862781004884460660000006206700344408181928_"  style="overflow:visible;"/>
			</clipPath>
			
				<path style="clip-path:url(#SVGID_00000057859510628291066390000014587862984971475102_);fill:none;stroke:#00355F;stroke-width:1.314;" d="
				M957.3,13.3l2.3,2.6l-1.7,0.1h-0.3c0,0,2.9,6.2,5.9,7.3c0,0-2.1,2.6-3.9,1.4c0,0,1.7,4.5,4,5.5c0,0-1.2,2.5-4.3,0.8
				c0,0,1.3,3.6,5.1,5c0,0-1.9,1.7-4,1.1c0.8,3.5,4.5,4.6,4.5,4.6s-1.7,2.5-4.2,1.6c0,0,1.1,3.1,4.7,4.8c0,0-2.3,0.8-4.6,0.2
				c2.2,2.6,6.2,3.1,6.2,3.1s-2.1,1.8-5.1,0.9l0.1,0.2c0.9,1.6,4.6,2.5,4.6,2.5c-4.4,2.5-10.3-2.2-10.3-2.2
				c-1.8,3.5-6.2,4.2-6.2,4.2l-0.9-2.7c-2.3,3.2-7.4,2.6-9.2,2.4c2.4-1.3,3.6-4.2,3.6-4.2c-3.7,3.7-14.3,1.8-14.3,1.8
				c4.2-0.2,7.6-4.6,7.6-4.6c-3.2,0-4.8-1.8-4.8-1.8c6.3-2.6,7.8-6.6,7.8-6.6h-4.4c2.9-1.2,7.2-6.2,7.2-6.2l-4.4,0.9
				c4.4-2.8,5.1-5.6,5.1-5.6s-0.9,0.2-2.7,0.1c1.9-1.2,2.7-3.4,2.7-3.4v-0.3c0-3.1-8.5-4.3-8.5-4.3l-0.3-0.1c-1-0.2-4.9-1.4-4.9-1.4
				c-1-1.6,4.7-0.6,4.7-0.6h0.3c6.9,0.8,6.9,0.3,6.9,0.3s1.3,3.4,0.2,0.5c-2.2-5.7-7.6-3.6-7.6-3.6c-3-4.1-8-1.2-8-1.2
				s1.1-9.1,6.6-5.7l0.3-0.6c0,0,1.8-1.7,3.7-0.9h0.2c0,0,5.5-7.3,12-0.9c0,0,3.6-0.9,6.3,0.6c0,0,3.5,1.8,6.4-1.2
				c0,0-0.1,5.3-6,5.7"/>
		</g>
	</g>
	<polyline class="st8" points="944.5,25.8 946.2,27.3 946.2,25.1 	"/>
	<path class="st9" d="M949.8,35.7c0,0,0.6,2.2,0.6,3.4c2.3-0.5,2.5-4.8,2.5-4.8"/>
	<path class="st8" d="M954.5,23.7l2,1.9l0.6-2.9 M950.9,24.8l1.3,1.6l0.2-3.3 M955.1,29.2l2.1,1.6l-0.6-3.4 M952,31.4l1.8,1.6
		c0,0,0.4-2.8,0-3.5 M948.5,28.9l1.5,2.5l0.7-2.5"/>
	<path class="st10" d="M957,41.2c-0.4,0.7,0.3,3.9,0.3,3.9s-2.4,0.2-4.5-4"/>
	<path class="st9" d="M957.8,35.4c-0.2,0.6,0.7,3.1,0.7,3.1s-1.4-0.2-3.6-3.3"/>
	<path class="st8" d="M947.8,21c-0.1,0.4,0.6,1.9,0.6,1.9s-1.2,0.4-2.7-1.4"/>
	<path class="st11" d="M952.3,48.9c-0.4,0.8,0.4,4.5,0.4,4.5s-2.8,0.2-5.3-4.7"/>
	<path class="st12" d="M940.4,49c0,0.6-1.6,2.6-1.6,2.6s3.3,0,6.3-2.1"/>
	<path class="st11" d="M946,43c0.6,0.7,0.5,4.3,0.5,4.3s2.7-0.4,4-5.4 M939.1,44.7c0,0.6-1.4,2.8-1.4,2.8s2.4,0.2,5.2-2.2"/>
	<path class="st9" d="M943.9,37.8c0.2,0.5-1.1,4.1-1.1,4.1s2.4-1.3,4-4.1"/>
	<path class="st11" d="M958.6,47.4c-0.1,0.7,1.2,3.2,1.2,3.2s-2,0.7-4.8-2.3"/>
	<polyline class="st8" points="947.6,31.5 945.7,34.2 945.2,32 	"/>
	<path class="st0" d="M943.6,14c0.4,0,0.8-0.3,0.8-0.7s-0.4-0.7-0.8-0.7c-0.4,0-0.8,0.3-0.8,0.7S943.2,14,943.6,14"/>
	<path class="st8" d="M943.6,14c0.4,0,0.8-0.3,0.8-0.7s-0.4-0.7-0.8-0.7c-0.4,0-0.8,0.3-0.8,0.7S943.2,14,943.6,14z"/>
	<polyline class="st9" points="957.6,16 954.9,16 956.5,20.4 952.1,19.1 952.3,21 948.6,19.1 	"/>
	<path class="st13" d="M940.9,12.6c0,0,1.3-1.6,3.9-1.2c0,0,0.5,1.2,3.3,0"/>
	<path class="st8" d="M941.7,15.8c0,0,3.1,1.5,6.2-2"/>
	<path class="st11" d="M936.6,9.5c1.3,0.8,2.6,2.4,3.4,6.1 M932.5,10.8c1.1,0.6,2.1,1.5,3.6,3.1"/>
	<polyline class="st8" points="952.1,19.1 952.3,21 948.6,19.1 	"/>
	<path class="st0" d="M932,16.1c0.7,0.4,1.7,1.1,1.7,1.1l4.7,13.8c0,0-0.7,1.6-1.8,0.7c-0.8-0.6-0.6-1.2-1.5-1.4
		c-0.8-0.2-1.6-0.3-2.4-0.5l1.1,2.8l-3,0.8l-0.4-4.4l-2.3-3.4l2.8-1.2l1.3,3.1c0,0,0.7-1.4,1.4-3c0.1-0.1-3.3-9.1-3.3-9.1
		S931.2,15.7,932,16.1"/>
	<polyline class="st0" points="914,191.3 921.5,206.6 974.2,206.6 981.7,191.3 914,191.3 	"/>
	<g>
		<g>
			<defs>
				<rect id="SVGID_00000165193030615977405740000012361061459459012744_" x="871.8" y="0.9" width="152.2" height="206.1"/>
			</defs>
			<clipPath id="SVGID_00000116925607110853197750000008267186080460410264_">
				<use xlink:href="#SVGID_00000165193030615977405740000012361061459459012744_"  style="overflow:visible;"/>
			</clipPath>
			
				<polygon style="clip-path:url(#SVGID_00000116925607110853197750000008267186080460410264_);fill:none;stroke:#00355F;stroke-width:0.795;stroke-linecap:round;stroke-linejoin:round;" points="
				914,191.3 921.5,206.6 974.2,206.6 981.7,191.3 			"/>
		</g>
	</g>
	<polyline class="st0" points="872.5,169.9 928.7,169.9 936.2,185.1 880,185.1 872.5,169.9 	"/>
	<g>
		<g>
			<defs>
				<rect id="SVGID_00000108291429542512440890000004560584182835621797_" x="871.8" y="0.9" width="152.2" height="206.1"/>
			</defs>
			<clipPath id="SVGID_00000053542570898774926400000015433502366993469876_">
				<use xlink:href="#SVGID_00000108291429542512440890000004560584182835621797_"  style="overflow:visible;"/>
			</clipPath>
			
				<polygon style="clip-path:url(#SVGID_00000053542570898774926400000015433502366993469876_);fill:none;stroke:#00355F;stroke-width:0.795;stroke-linecap:round;stroke-linejoin:round;" points="
				872.5,169.9 928.7,169.9 936.2,185.1 880,185.1 			"/>
		</g>
	</g>
	<polyline class="st0" points="1023.2,169.9 966.9,169.9 959.4,185.1 1015.7,185.1 1023.2,169.9 	"/>
	<g>
		<g>
			<defs>
				<rect id="SVGID_00000065776866321270571910000000794498264532003729_" x="871.8" y="0.9" width="152.2" height="206.1"/>
			</defs>
			<clipPath id="SVGID_00000107552652602550744190000010316581242517487285_">
				<use xlink:href="#SVGID_00000065776866321270571910000000794498264532003729_"  style="overflow:visible;"/>
			</clipPath>
			
				<polygon style="clip-path:url(#SVGID_00000107552652602550744190000010316581242517487285_);fill:none;stroke:#00355F;stroke-width:0.795;stroke-linecap:round;stroke-linejoin:round;" points="
				1023.2,169.9 966.9,169.9 959.4,185.1 1015.7,185.1 			"/>
		</g>
	</g>
	<polyline class="st0" points="910.4,184.1 917.9,199.4 938.9,199.4 931.4,184.1 910.4,184.1 	"/>
	<polygon class="st17" points="910.4,184.1 917.9,199.4 938.9,199.4 931.4,184.1 	"/>
	<polyline class="st0" points="985.3,184.1 977.8,199.4 956.7,199.4 964.3,184.1 985.3,184.1 	"/>
	<polygon class="st17" points="985.3,184.1 977.8,199.4 956.7,199.4 964.3,184.1 	"/>
	<path class="st6" d="M872.4,169c0,0,11.8-5,16.5-5c5,0,7.3,1.1,7.3,1.9c0,0-0.7,2.4-0.6,3.2"/>
	<g>
		<g>
			<defs>
				<rect id="SVGID_00000091010367024887594260000005943600152756765117_" x="871.8" y="0.9" width="152.2" height="206.1"/>
			</defs>
			<clipPath id="SVGID_00000138540989660779100950000018063689560138866585_">
				<use xlink:href="#SVGID_00000091010367024887594260000005943600152756765117_"  style="overflow:visible;"/>
			</clipPath>
			
				<path style="clip-path:url(#SVGID_00000138540989660779100950000018063689560138866585_);fill:none;stroke:#00355F;stroke-width:0.795;stroke-linecap:round;" d="
				M872.4,169c0,0,11.8-5,16.5-5c5,0,7.3,1.1,7.3,1.9c0,0-0.7,2.4-0.6,3.2"/>
		</g>
	</g>
	<path class="st2" d="M885.4,166.1c0,0,1.1,1.7,0.8,2.8"/>
	<path class="st19" d="M885.4,166.1c0,0,1.1,1.7,0.8,2.8"/>
	<path class="st2" d="M889,165.5c0,0-0.6,0.7-0.4,1.5"/>
	<path class="st20" d="M889,165.5c0,0-0.6,0.7-0.4,1.5"/>
	<path class="st6" d="M896.3,165.9c0,0.8-4.3,1.1-7.3,1.1s-3.6-0.7-3.6-1.1c0-0.4,2.6-0.4,3.6-0.4"/>
	<path class="st19" d="M896.3,165.9c0,0.8-4.3,1.1-7.3,1.1s-3.6-0.7-3.6-1.1c0-0.4,2.6-0.4,3.6-0.4"/>
	<path class="st6" d="M1023.5,169c0,0-11.8-5-16.5-5c-5,0-7.3,1.1-7.3,1.9c0,0,0.7,2.4,0.6,3.2"/>
	<g>
		<g>
			<defs>
				<rect id="SVGID_00000039131702058754599270000002296482052416813440_" x="871.8" y="0.9" width="152.2" height="206.1"/>
			</defs>
			<clipPath id="SVGID_00000132061846820269047600000017782252049985977770_">
				<use xlink:href="#SVGID_00000039131702058754599270000002296482052416813440_"  style="overflow:visible;"/>
			</clipPath>
			
				<path style="clip-path:url(#SVGID_00000132061846820269047600000017782252049985977770_);fill:none;stroke:#00355F;stroke-width:0.795;stroke-linecap:round;" d="
				M1023.5,169c0,0-11.8-5-16.5-5c-5,0-7.3,1.1-7.3,1.9c0,0,0.7,2.4,0.6,3.2"/>
		</g>
	</g>
	<path class="st2" d="M1010.6,166.1c0,0-1.1,1.7-0.8,2.8"/>
	<path class="st19" d="M1010.6,166.1c0,0-1.1,1.7-0.8,2.8"/>
	<path class="st2" d="M1007,165.5c0,0,0.6,0.7,0.4,1.5"/>
	<path class="st20" d="M1007,165.5c0,0,0.6,0.7,0.4,1.5"/>
	<path class="st6" d="M999.7,165.9c0,0.8,4.3,1.1,7.3,1.1s3.6-0.7,3.6-1.1c0-0.4-2.6-0.4-3.6-0.4"/>
	<path class="st19" d="M999.7,165.9c0,0.8,4.3,1.1,7.3,1.1s3.6-0.7,3.6-1.1c0-0.4-2.6-0.4-3.6-0.4"/>
	<polyline class="st6" points="935.8,184.3 879.6,184.3 872.1,169.1 928.3,169.1 935.8,184.3 	"/>
	<g>
		<g>
			<defs>
				<rect id="SVGID_00000044163053930921466720000013591582598762913209_" x="871.8" y="0.9" width="152.2" height="206.1"/>
			</defs>
			<clipPath id="SVGID_00000127765845607640144670000003140065210721588397_">
				<use xlink:href="#SVGID_00000044163053930921466720000013591582598762913209_"  style="overflow:visible;"/>
			</clipPath>
			
				<polygon style="clip-path:url(#SVGID_00000127765845607640144670000003140065210721588397_);fill:none;stroke:#00355F;stroke-width:0.795;stroke-linecap:round;stroke-linejoin:round;" points="
				935.8,184.3 879.6,184.3 872.1,169.1 928.3,169.1 			"/>
		</g>
	</g>
	<polyline class="st6" points="1023.6,169.1 967.3,169.1 959.8,184.3 1016.1,184.3 1023.6,169.1 	"/>
	<g>
		<g>
			<defs>
				<rect id="SVGID_00000181775239197200667720000003628527324469170086_" x="871.8" y="0.9" width="152.2" height="206.1"/>
			</defs>
			<clipPath id="SVGID_00000096744467452194395450000004863218663304299918_">
				<use xlink:href="#SVGID_00000181775239197200667720000003628527324469170086_"  style="overflow:visible;"/>
			</clipPath>
			
				<polygon style="clip-path:url(#SVGID_00000096744467452194395450000004863218663304299918_);fill:none;stroke:#00355F;stroke-width:0.795;stroke-linecap:round;stroke-linejoin:round;" points="
				1023.6,169.1 967.3,169.1 959.8,184.3 1016.1,184.3 			"/>
		</g>
	</g>
	<polyline class="st6" points="913.5,190.4 921.1,205.7 974.6,205.7 982.1,190.4 913.5,190.4 	"/>
	<g>
		<g>
			<defs>
				<rect id="SVGID_00000085962025285926690600000005574097505323830677_" x="871.8" y="0.9" width="152.2" height="206.1"/>
			</defs>
			<clipPath id="SVGID_00000166648490971635551020000004866494858338404021_">
				<use xlink:href="#SVGID_00000085962025285926690600000005574097505323830677_"  style="overflow:visible;"/>
			</clipPath>
			
				<polygon style="clip-path:url(#SVGID_00000166648490971635551020000004866494858338404021_);fill:none;stroke:#00355F;stroke-width:0.795;stroke-linecap:round;stroke-linejoin:round;" points="
				913.5,190.4 921.1,205.7 974.6,205.7 982.1,190.4 			"/>
		</g>
	</g>
	<path class="st0" d="M966.9,178.1c0.5,0,0.9-0.4,0.9-0.9s-0.4-0.9-0.9-0.9s-0.9,0.4-0.9,0.9C966,177.7,966.4,178.1,966.9,178.1"/>
	<path class="st0" d="M966.9,178.1c0.5,0,0.9-0.4,0.9-0.9s-0.4-0.9-0.9-0.9s-0.9,0.4-0.9,0.9C966,177.7,966.4,178.1,966.9,178.1"/>
	<path class="st0" d="M1016,178.2c0.5,0,0.9-0.4,0.9-0.9s-0.4-0.9-0.9-0.9s-0.9,0.4-0.9,0.9C1015,177.7,1015.5,178.2,1016,178.2"/>
	<path class="st0" d="M1016,178.2c0.5,0,0.9-0.4,0.9-0.9s-0.4-0.9-0.9-0.9s-0.9,0.4-0.9,0.9C1015,177.7,1015.5,178.2,1016,178.2"/>
	<path class="st0" d="M980.4,172c-0.6-0.2-1.1-0.4-1.6-0.2c-0.3,0.1-0.3,0.6-0.1,0.8c0.2,0.3,0.7,0.2,0.9,0.5
		c0.3,0.3,0.3,0.8,0.4,1.2c0.2,0.8-0.2,1.6,0,2.4c0.1,0.8,0.2,1.7-0.2,2.5c-0.2,0.5-0.8,0.7-1,1.2c-0.1,0.2-0.1,0.5,0,0.6
		c0.1,0.3,0.6,0.5,0.8,0.2c0.8-0.7,1.6-0.6,2.5-0.1c0.3,0.2,0.5-0.1,0.6-0.4c0.1-0.3,0-0.8-0.3-1.1c-0.2-0.2-0.1-0.3-0.4-0.5
		c-0.2-0.1-0.3-0.3-0.4-0.5c-0.2-1.3-0.4-2.5-0.2-3.7c0.1-0.6-0.2-1.2,0.2-1.6c0.2-0.3,0.5-0.5,0.9-0.7c0,0,0-0.1,0-0.2
		c0,0,0.1,0,0.1-0.1c0.1-0.3,0-0.7-0.3-0.8c-0.4-0.2-0.8-0.1-1.2,0.1C980.9,171.9,980.6,172.1,980.4,172"/>
	<path class="st0" d="M980.4,172c-0.6-0.2-1.1-0.4-1.6-0.2c-0.3,0.1-0.3,0.6-0.1,0.8c0.2,0.3,0.7,0.2,0.9,0.5
		c0.3,0.3,0.3,0.8,0.4,1.2c0.2,0.8-0.2,1.6,0,2.4c0.1,0.8,0.2,1.7-0.2,2.5c-0.2,0.5-0.8,0.7-1,1.2c-0.1,0.2-0.1,0.5,0,0.6
		c0.1,0.3,0.6,0.5,0.8,0.2c0.8-0.7,1.6-0.6,2.5-0.1c0.3,0.2,0.5-0.1,0.6-0.4c0.1-0.3,0-0.8-0.3-1.1c-0.2-0.2-0.1-0.3-0.4-0.5
		c-0.2-0.1-0.3-0.3-0.4-0.5c-0.2-1.3-0.4-2.5-0.2-3.7c0.1-0.6-0.2-1.2,0.2-1.6c0.2-0.3,0.5-0.5,0.9-0.7c0,0,0-0.1,0-0.2
		c0,0,0.1,0,0.1-0.1c0.1-0.3,0-0.7-0.3-0.8c-0.4-0.2-0.8-0.1-1.2,0.1C980.9,171.9,980.6,172.1,980.4,172"/>
	<path class="st0" d="M997.3,175.9c-0.3-0.1-0.5-0.4-0.8-0.5c-0.4-0.1-0.9,0-1,0.5c-0.1,0.6,0.2,1.1,0.7,1.4c0.5,0.3,1,0.1,1.6,0.1
		c0.1,0,0.2-0.1,0.3-0.1c0.4-0.3,0.6-0.8,0.8-1.2c0.2-0.3,0.3-0.7,0.4-1.1c0.2-0.8,0.2-1.7,0.5-2.5c0-0.1,0-0.3,0.1-0.4
		c-0.6-0.2-0.9,0.5-1,0.9c-0.8-0.9-1.8-1-2.9-0.7c-0.5,0.1-1.2,0.4-1.6,0.7c-0.6,0.5-0.9,0.7-1.3,1.3c-0.1,0.2-0.2,0.3-0.3,0.5
		c0-0.7-0.2-1.4-0.6-2.1c-0.4-0.7-1.2-1-2-1.1c-1.5-0.3-3.2-0.2-4.3,0.9c-0.1,0.1-0.2,0.2-0.4,0.1c-0.4-0.2-0.6-0.6-1.1-0.7
		c-0.3-0.1-0.7,0-0.8,0.3c-0.2,0.4,0,0.9,0.5,1.2c0.1,0,0.1,0.1,0.1,0.1c0.1,0.5,0,1,0.1,1.5c0.2,1.4,0.2,2.7-0.1,4
		c-0.1,0.4-0.5,0.6-0.7,1c-0.4,0.9-0.5,0.4,0,1.2c0.2,0.3,0.5,0.3,0.8,0.1v-0.1c0-0.1,0.1-0.1,0.1-0.1c0-0.2,0.3-0.4,0.5-0.4
		c0.5-0.1,0.5,0.5,1,0.7s0.8-0.3,0.6-0.7c-0.3-0.6-0.8-1.1-1-1.7c-0.3-1.4-0.2-2.8,0.2-4.2c0.1-0.5,0.5-0.9,0.8-1.3
		c0.2-0.2,0.4-0.3,0.6-0.5c1-0.6,2.4-0.9,3.1,0.2c0.2,0.3,0.2,0.8,0.1,1.2c-0.1,0.2,0,0.5-0.1,0.8c-0.2,0.6,0,1.2-0.4,1.8
		c-0.3,0.4-0.6,0.8-0.7,1.4c-0.1,0.5-0.4,1.1-0.3,1.5c0.2,0.6,0.3,0.8,0.7,1.3c0.4,0.6,1.6,0.7,2.1,0.3c0.4-0.3,0.5-0.9,0.4-1.4
		c-0.1-0.5-0.1-1-0.6-1.2c-0.7-0.2-0.7,0.7-0.8,1.3c-0.1,0.4-0.5,0.2-0.6-0.1c-0.2-0.3-0.1-0.8,0-1.1c0.1-0.2,0.1-0.5,0.3-0.6
		c0.5-0.7,1.2-1.2,1.7-2c0.1-0.2,0.3-0.4,0.4-0.6c0,0.7,0,1.5,0,2c0.2,0-0.1,0.5,0.1,0.4c0,0.5,0.2,1,0.5,1.3c0.5,0.7,1.1,1.3,2,1.5
		c1.1,0.2,2.3,0.3,3.3-0.3c0.3-0.2,0.4-0.7,0.5-1c0.2-0.4,0.3-0.8,0.3-1.2c-0.1-0.3,0-0.7-0.3-0.8s-0.6-0.1-0.7,0.2
		c-0.1,0.2,0.1,0.2,0.1,0.4c0.1,0,0,0.3,0.1,0.4c0.1,0.2-0.2,0.3-0.3,0.5c-0.1,0.4-0.4,0.7-0.7,0.8c-0.8,0.4-1.7,0.1-2.3-0.6
		c-0.4-0.5-0.6-1.1-0.6-1.7c0,0-0.1-0.1-0.1-0.2c0-0.6-0.1-1.1,0-1.7c0-0.1,0.1-0.2,0.1-0.3c0-1,0.5-2,1.4-2.3
		c0.8-0.2,1.9-0.2,2.6,0.3C998.5,174.5,998.6,176.2,997.3,175.9"/>
	<path class="st0" d="M997.3,175.9c-0.3-0.1-0.5-0.4-0.8-0.5c-0.4-0.1-0.9,0-1,0.5c-0.1,0.6,0.2,1.1,0.7,1.4c0.5,0.3,1,0.1,1.6,0.1
		c0.1,0,0.2-0.1,0.3-0.1c0.4-0.3,0.6-0.8,0.8-1.2c0.2-0.3,0.3-0.7,0.4-1.1c0.2-0.8,0.2-1.7,0.5-2.5c0-0.1,0-0.3,0.1-0.4
		c-0.6-0.2-0.9,0.5-1,0.9c-0.8-0.9-1.8-1-2.9-0.7c-0.5,0.1-1.2,0.4-1.6,0.7c-0.6,0.5-0.9,0.7-1.3,1.3c-0.1,0.2-0.2,0.3-0.3,0.5
		c0-0.7-0.2-1.4-0.6-2.1c-0.4-0.7-1.2-1-2-1.1c-1.5-0.3-3.2-0.2-4.3,0.9c-0.1,0.1-0.2,0.2-0.4,0.1c-0.4-0.2-0.6-0.6-1.1-0.7
		c-0.3-0.1-0.7,0-0.8,0.3c-0.2,0.4,0,0.9,0.5,1.2c0.1,0,0.1,0.1,0.1,0.1c0.1,0.5,0,1,0.1,1.5c0.2,1.4,0.2,2.7-0.1,4
		c-0.1,0.4-0.5,0.6-0.7,1c-0.4,0.9-0.5,0.4,0,1.2c0.2,0.3,0.5,0.3,0.8,0.1v-0.1c0-0.1,0.1-0.1,0.1-0.1c0-0.2,0.3-0.4,0.5-0.4
		c0.5-0.1,0.5,0.5,1,0.7s0.8-0.3,0.6-0.7c-0.3-0.6-0.8-1.1-1-1.7c-0.3-1.4-0.2-2.8,0.2-4.2c0.1-0.5,0.5-0.9,0.8-1.3
		c0.2-0.2,0.4-0.3,0.6-0.5c1-0.6,2.4-0.9,3.1,0.2c0.2,0.3,0.2,0.8,0.1,1.2c-0.1,0.2,0,0.5-0.1,0.8c-0.2,0.6,0,1.2-0.4,1.8
		c-0.3,0.4-0.6,0.8-0.7,1.4c-0.1,0.5-0.4,1.1-0.3,1.5c0.2,0.6,0.3,0.8,0.7,1.3c0.4,0.6,1.6,0.7,2.1,0.3c0.4-0.3,0.5-0.9,0.4-1.4
		c-0.1-0.5-0.1-1-0.6-1.2c-0.7-0.2-0.7,0.7-0.8,1.3c-0.1,0.4-0.5,0.2-0.6-0.1c-0.2-0.3-0.1-0.8,0-1.1c0.1-0.2,0.1-0.5,0.3-0.6
		c0.5-0.7,1.2-1.2,1.7-2c0.1-0.2,0.3-0.4,0.4-0.6c0,0.7,0,1.5,0,2c0.2,0-0.1,0.5,0.1,0.4c0,0.5,0.2,1,0.5,1.3c0.5,0.7,1.1,1.3,2,1.5
		c1.1,0.2,2.3,0.3,3.3-0.3c0.3-0.2,0.4-0.7,0.5-1c0.2-0.4,0.3-0.8,0.3-1.2c-0.1-0.3,0-0.7-0.3-0.8s-0.6-0.1-0.7,0.2
		c-0.1,0.2,0.1,0.2,0.1,0.4c0.1,0,0,0.3,0.1,0.4c0.1,0.2-0.2,0.3-0.3,0.5c-0.1,0.4-0.4,0.7-0.7,0.8c-0.8,0.4-1.7,0.1-2.3-0.6
		c-0.4-0.5-0.6-1.1-0.6-1.7c0,0-0.1-0.1-0.1-0.2c0-0.6-0.1-1.1,0-1.7c0-0.1,0.1-0.2,0.1-0.3c0-1,0.5-2,1.4-2.3
		c0.8-0.2,1.9-0.2,2.6,0.3C998.5,174.5,998.6,176.2,997.3,175.9"/>
	<path class="st0" d="M1014.4,172.3c0.2-0.2-0.1-0.4-0.4-0.4v0.1c-0.3,0.1-0.3,0.4-0.7,0.5v0.1c-0.2,0-0.1,0.3-0.3,0.2
		s-0.6-0.4-0.8-0.4c-1.2-0.3-2.5-0.6-3.7,0c-0.3,0.2-0.6,0.7-0.8,1.2c-0.2,0.5-0.2,1-0.2,1.5c0,0.2,0.1,0.4,0.1,0.5
		c0.7,1.3,2,2,3.2,2.6c0,0.9-0.9,0.4-1.4,0.7c0.7,0.7,0.7,0.5,1.1,0.5c0.6,0.1,1.3-0.4,1.3-0.9c0.5,0.4,1.1,1.2,0.7,1.7
		c-0.3,0.3-0.9,0.8-1.4,0.9c-0.4,0.1-0.7,0.1-1-0.1c-0.3-0.1-0.5-0.3-0.8-0.5c-0.2-0.2-0.5-0.4-0.6-0.6c-0.1-0.3-0.3-0.6-0.2-0.9
		c-0.2,0.3-0.4,0.7-0.7,0.9c-0.1,0.1-0.3,0.5-0.4,0.5c-0.3,0.1-0.7,0.1-1,0c-0.4-0.1-0.2-0.5-0.5-0.3l0,0c0-0.3,0-0.6-0.1-0.9
		c0-0.1,0-0.2-0.1-0.3c-0.3-0.1-0.5,0-0.7,0.2c-0.4,0.3-0.5,0.9-1,1.1c-0.6,0.3-1.2-0.1-1.6-0.5c-0.5-0.5-0.3-1.3-0.2-2
		c0-0.2,0.1-0.9,0.3-1c0.3-0.1,0.3,1,0.3,1.2c0,0.1,0.1,0.2,0.1,0.3c0.2,0.5,1,0.6,1.3,0.2c0.4-0.5-0.4-1-0.8-1.6
		c-0.4-0.5,0.3-1.3,0.2-1.9c0-0.2-0.2-0.2-0.4-0.1c-0.1,0.1-0.5,0.9-0.5,1c-0.2,0.2-0.4-0.3-0.5-0.6c-0.2-0.5,0.1-1.3,0.7-1.4
		c0.9-0.2,1.9-0.4,2.5,0.3c0.2,0.3,0.8,0.3,0.7-0.1c-0.1-0.4-0.7-0.6-0.4-1c0.1-0.2,0.2-0.4,0.3-0.5c0.1-0.1,0.2-0.3,0.1-0.3
		c-0.4-0.1-0.7,0.4-1.1,0.4c-0.9,0.1-1.7-0.2-2.5-0.2c-1-0.2-1.1-1-2.2-1c-0.2,0-0.3,0.4-0.1,0.6c0.1,0.1,0.1,0.3,0.1,0.4
		c0.1,0,0.1,0,0.1,0.1s0,0.2,0,0.3h0.1c0,0.3,0.1,0.5,0.2,0.8c0.2,0.7,0.3,1.3,0.4,2c0,0.1,0,0.2,0.1,0.3c0.2,1-0.1,1.9-0.1,2.9
		c0,0.6-0.5,0.9-0.7,1.4c-0.2,0.4-0.1,1,0.3,1.3c0.2,0.2,0.6,0.3,0.8,0.1c0.5-0.5,1.3-0.7,1.9-0.4c0.5,0.2,0.9,0.5,1.4,0.5
		c0.4,0,0.9-0.1,1-0.4c0.1-0.2,0.1-0.5,0.1-0.7c0.1,0.2,0.2,0.5,0.3,0.7c0.1,0.4,0.1-0.2,0.5-0.3c0.8-0.3,1.1-0.3,1.7-1
		c0,0.1,0.1,0.6,0.1,0.7c0,0.1,0.1,0.1,0.1,0.1c0,0.1,0,0.2,0,0.2c1.4,0.7,2.1,1.2,3.6,0.6c0.3-0.1,0.9-0.4,1.1-0.7
		c0.5-1.2,1.2-1.1,0.6-3.6c-0.1-0.3-0.3-0.7-0.6-0.9c-0.2-0.1-0.3-0.2-0.5-0.4l0,0C1013.4,174.7,1013.4,173.3,1014.4,172.3
		 M1010.6,175c-0.4-0.1-0.7-0.4-1-0.7s-0.5-0.8-0.3-1.4c0-0.1,0.1-0.2,0.3-0.3c0.7-0.2,1.3,0,1.8,0.3c0.3,0.2,1.1,0.6,1.3,1
		c0.2,0.6-0.1,0.8-0.5,1.6C1011.7,175.4,1011.2,175.2,1010.6,175z"/>
	<path class="st0" d="M1014.4,172.3c0.2-0.2-0.1-0.4-0.4-0.4v0.1c-0.3,0.1-0.3,0.4-0.7,0.5v0.1c-0.2,0-0.1,0.3-0.3,0.2
		s-0.6-0.4-0.8-0.4c-1.2-0.3-2.5-0.6-3.7,0c-0.3,0.2-0.6,0.7-0.8,1.2c-0.2,0.5-0.2,1-0.2,1.5c0,0.2,0.1,0.4,0.1,0.5
		c0.7,1.3,2,2,3.2,2.6c0,0.9-0.9,0.4-1.4,0.7c0.7,0.7,0.7,0.5,1.1,0.5c0.6,0.1,1.3-0.4,1.3-0.9c0.5,0.4,1.1,1.2,0.7,1.7
		c-0.3,0.3-0.9,0.8-1.4,0.9c-0.4,0.1-0.7,0.1-1-0.1c-0.3-0.1-0.5-0.3-0.8-0.5c-0.2-0.2-0.5-0.4-0.6-0.6c-0.1-0.3-0.3-0.6-0.2-0.9
		c-0.2,0.3-0.4,0.7-0.7,0.9c-0.1,0.1-0.3,0.5-0.4,0.5c-0.3,0.1-0.7,0.1-1,0c-0.4-0.1-0.2-0.5-0.5-0.3l0,0c0-0.3,0-0.6-0.1-0.9
		c0-0.1,0-0.2-0.1-0.3c-0.3-0.1-0.5,0-0.7,0.2c-0.4,0.3-0.5,0.9-1,1.1c-0.6,0.3-1.2-0.1-1.6-0.5c-0.5-0.5-0.3-1.3-0.2-2
		c0-0.2,0.1-0.9,0.3-1c0.3-0.1,0.3,1,0.3,1.2c0,0.1,0.1,0.2,0.1,0.3c0.2,0.5,1,0.6,1.3,0.2c0.4-0.5-0.4-1-0.8-1.6
		c-0.4-0.5,0.3-1.3,0.2-1.9c0-0.2-0.2-0.2-0.4-0.1c-0.1,0.1-0.5,0.9-0.5,1c-0.2,0.2-0.4-0.3-0.5-0.6c-0.2-0.5,0.1-1.3,0.7-1.4
		c0.9-0.2,1.9-0.4,2.5,0.3c0.2,0.3,0.8,0.3,0.7-0.1c-0.1-0.4-0.7-0.6-0.4-1c0.1-0.2,0.2-0.4,0.3-0.5c0.1-0.1,0.2-0.3,0.1-0.3
		c-0.4-0.1-0.7,0.4-1.1,0.4c-0.9,0.1-1.7-0.2-2.5-0.2c-1-0.2-1.1-1-2.2-1c-0.2,0-0.3,0.4-0.1,0.6c0.1,0.1,0.1,0.3,0.1,0.4
		c0.1,0,0.1,0,0.1,0.1s0,0.2,0,0.3h0.1c0,0.3,0.1,0.5,0.2,0.8c0.2,0.7,0.3,1.3,0.4,2c0,0.1,0,0.2,0.1,0.3c0.2,1-0.1,1.9-0.1,2.9
		c0,0.6-0.5,0.9-0.7,1.4c-0.2,0.4-0.1,1,0.3,1.3c0.2,0.2,0.6,0.3,0.8,0.1c0.5-0.5,1.3-0.7,1.9-0.4c0.5,0.2,0.9,0.5,1.4,0.5
		c0.4,0,0.9-0.1,1-0.4c0.1-0.2,0.1-0.5,0.1-0.7c0.1,0.2,0.2,0.5,0.3,0.7c0.1,0.4,0.1-0.2,0.5-0.3c0.8-0.3,1.1-0.3,1.7-1
		c0,0.1,0.1,0.6,0.1,0.7c0,0.1,0.1,0.1,0.1,0.1c0,0.1,0,0.2,0,0.2c1.4,0.7,2.1,1.2,3.6,0.6c0.3-0.1,0.9-0.4,1.1-0.7
		c0.5-1.2,1.2-1.1,0.6-3.6c-0.1-0.3-0.3-0.7-0.6-0.9c-0.2-0.1-0.3-0.2-0.5-0.4l0,0C1013.4,174.7,1013.4,173.3,1014.4,172.3
		 M1010.6,175c-0.4-0.1-0.7-0.4-1-0.7s-0.5-0.8-0.3-1.4c0-0.1,0.1-0.2,0.3-0.3c0.7-0.2,1.3,0,1.8,0.3c0.3,0.2,1.1,0.6,1.3,1
		c0.2,0.6-0.1,0.8-0.5,1.6C1011.7,175.4,1011.2,175.2,1010.6,175z"/>
	<path class="st0" d="M977.6,179.8c0.5,0.3,0.7,0.7,0.5,1.2c-0.1,0.3-0.4,0.4-0.8,0.4c-0.4-0.1-0.7-0.5-1.1-0.7
		c-0.1-0.1-0.3,0.1-0.4,0.2c-1.2,1.2-2.8,1.3-4.3,1.1c-0.8-0.1-1.5-0.4-2-1c-0.6-0.9-0.8-1.8-0.6-2.8c0.1-0.4,0.3-0.7,0.5-1
		c0.4-0.8,1.1-1.3,1.6-2c0.1-0.2,0.2-0.4,0.3-0.7c0.1-0.4,0.2-0.8,0-1.1c-0.1-0.2-0.5-0.4-0.6-0.1c-0.1,0.5,0,1.5-0.7,1.3
		c-0.5-0.1-0.5-0.7-0.6-1.1c-0.1-0.5-0.1-1.1,0.3-1.4c0.5-0.3,1.7-0.3,2.2,0.3c0.4,0.5,0.5,0.7,0.7,1.3c0.1,0.4-0.1,1-0.2,1.5
		c-0.1,0.5-0.4,0.9-0.7,1.4c-0.4,0.6-0.2,1.2-0.4,1.8c-0.1,0.2,0.1,0.5,0,0.8c-0.2,0.4-0.1,0.9,0.1,1.2c0.8,1.1,2.2,0.8,3.1,0.1
		c0.2-0.2,0.5-0.3,0.6-0.5c0.4-0.4,0.7-0.8,0.8-1.3c0.3-1.4,0.3-2.8,0-4.2c-0.1-0.6-0.7-1.1-1-1.7c-0.2-0.5,0.1-0.9,0.6-0.7
		c0.4,0.1,0.5,0.8,1,0.7c0.1,0,0.5-0.3,0.5-0.4c0.1,0,0.1,0,0.1-0.1v-0.1c0.3-0.1,0.6-0.2,0.8,0.1c0.5,0.7,0.4,0.3,0,1.2
		c-0.1,0.4-0.6,0.6-0.6,1c-0.3,1.4-0.3,2.7,0,4c0.1,0.5,0,1,0.1,1.5C977.5,179.8,977.6,179.8,977.6,179.8"/>
	<path class="st0" d="M977.6,179.8c0.5,0.3,0.7,0.7,0.5,1.2c-0.1,0.3-0.4,0.4-0.8,0.4c-0.4-0.1-0.7-0.5-1.1-0.7
		c-0.1-0.1-0.3,0.1-0.4,0.2c-1.2,1.2-2.8,1.3-4.3,1.1c-0.8-0.1-1.5-0.4-2-1c-0.6-0.9-0.8-1.8-0.6-2.8c0.1-0.4,0.3-0.7,0.5-1
		c0.4-0.8,1.1-1.3,1.6-2c0.1-0.2,0.2-0.4,0.3-0.7c0.1-0.4,0.2-0.8,0-1.1c-0.1-0.2-0.5-0.4-0.6-0.1c-0.1,0.5,0,1.5-0.7,1.3
		c-0.5-0.1-0.5-0.7-0.6-1.1c-0.1-0.5-0.1-1.1,0.3-1.4c0.5-0.3,1.7-0.3,2.2,0.3c0.4,0.5,0.5,0.7,0.7,1.3c0.1,0.4-0.1,1-0.2,1.5
		c-0.1,0.5-0.4,0.9-0.7,1.4c-0.4,0.6-0.2,1.2-0.4,1.8c-0.1,0.2,0.1,0.5,0,0.8c-0.2,0.4-0.1,0.9,0.1,1.2c0.8,1.1,2.2,0.8,3.1,0.1
		c0.2-0.2,0.5-0.3,0.6-0.5c0.4-0.4,0.7-0.8,0.8-1.3c0.3-1.4,0.3-2.8,0-4.2c-0.1-0.6-0.7-1.1-1-1.7c-0.2-0.5,0.1-0.9,0.6-0.7
		c0.4,0.1,0.5,0.8,1,0.7c0.1,0,0.5-0.3,0.5-0.4c0.1,0,0.1,0,0.1-0.1v-0.1c0.3-0.1,0.6-0.2,0.8,0.1c0.5,0.7,0.4,0.3,0,1.2
		c-0.1,0.4-0.6,0.6-0.6,1c-0.3,1.4-0.3,2.7,0,4c0.1,0.5,0,1,0.1,1.5C977.5,179.8,977.6,179.8,977.6,179.8"/>
	<path class="st0" d="M898.4,177.8c0.5,0,0.9-0.4,0.9-0.9s-0.4-0.9-0.9-0.9s-0.9,0.4-0.9,0.9C897.4,177.4,897.9,177.8,898.4,177.8"
		/>
	<path class="st0" d="M898.4,177.8c0.5,0,0.9-0.4,0.9-0.9s-0.4-0.9-0.9-0.9s-0.9,0.4-0.9,0.9C897.4,177.4,897.9,177.8,898.4,177.8"
		/>
	<path class="st0" d="M880.6,177.7c0.5,0,0.9-0.4,0.9-0.9s-0.4-0.9-0.9-0.9s-0.9,0.4-0.9,0.9C879.6,177.3,880,177.7,880.6,177.7"/>
	<path class="st0" d="M880.6,177.7c0.5,0,0.9-0.4,0.9-0.9s-0.4-0.9-0.9-0.9s-0.9,0.4-0.9,0.9C879.6,177.3,880,177.7,880.6,177.7"/>
	<path class="st0" d="M927.7,177.8c0.5,0,0.9-0.4,0.9-0.9s-0.4-0.9-0.9-0.9s-0.9,0.4-0.9,0.9C926.7,177.4,927.2,177.8,927.7,177.8"
		/>
	<path class="st0" d="M927.7,177.8c0.5,0,0.9-0.4,0.9-0.9s-0.4-0.9-0.9-0.9s-0.9,0.4-0.9,0.9C926.7,177.4,927.2,177.8,927.7,177.8"
		/>
	<path class="st0" d="M884.1,172.7c-0.6-0.2-1.1-0.4-1.6-0.2c-0.3,0.1-0.3,0.6-0.1,0.8c0.2,0.3,0.7,0.2,0.9,0.5
		c0.3,0.3,0.3,0.8,0.4,1.2c0.2,0.8-0.2,1.6,0,2.4c0.1,0.8,0.2,1.7-0.2,2.5c-0.2,0.5-0.8,0.7-1,1.2c-0.1,0.2-0.1,0.5,0,0.6
		c0.1,0.3,0.6,0.5,0.8,0.2c0.8-0.7,1.6-0.6,2.5-0.1c0.3,0.2,0.5-0.1,0.6-0.4c0.1-0.3,0-0.8-0.3-1.1c-0.2-0.2-0.1-0.3-0.4-0.5
		c-0.2-0.1-0.3-0.3-0.4-0.5c-0.2-1.3-0.4-2.5-0.2-3.7c0.1-0.6-0.2-1.2,0.2-1.6c0.2-0.3,0.5-0.5,0.9-0.7c0,0,0-0.1,0-0.2
		c0,0,0.1,0,0.1-0.1c0.1-0.3,0-0.7-0.3-0.8c-0.4-0.2-0.8-0.1-1.2,0.1C884.5,172.7,884.3,172.8,884.1,172.7"/>
	<path class="st0" d="M884.1,172.7c-0.6-0.2-1.1-0.4-1.6-0.2c-0.3,0.1-0.3,0.6-0.1,0.8c0.2,0.3,0.7,0.2,0.9,0.5
		c0.3,0.3,0.3,0.8,0.4,1.2c0.2,0.8-0.2,1.6,0,2.4c0.1,0.8,0.2,1.7-0.2,2.5c-0.2,0.5-0.8,0.7-1,1.2c-0.1,0.2-0.1,0.5,0,0.6
		c0.1,0.3,0.6,0.5,0.8,0.2c0.8-0.7,1.6-0.6,2.5-0.1c0.3,0.2,0.5-0.1,0.6-0.4c0.1-0.3,0-0.8-0.3-1.1c-0.2-0.2-0.1-0.3-0.4-0.5
		c-0.2-0.1-0.3-0.3-0.4-0.5c-0.2-1.3-0.4-2.5-0.2-3.7c0.1-0.6-0.2-1.2,0.2-1.6c0.2-0.3,0.5-0.5,0.9-0.7c0,0,0-0.1,0-0.2
		c0,0,0.1,0,0.1-0.1c0.1-0.3,0-0.7-0.3-0.8c-0.4-0.2-0.8-0.1-1.2,0.1C884.5,172.7,884.3,172.8,884.1,172.7"/>
	<path class="st0" d="M887.6,173.9c-0.5-0.3-0.7-0.7-0.5-1.2c0.1-0.3,0.4-0.4,0.8-0.3c0.4,0.1,0.7,0.5,1.1,0.7
		c0.1,0.1,0.3-0.1,0.4-0.1c1.2-1.1,2.8-1.2,4.3-0.9c0.8,0.2,1.5,0.4,2,1.1c0.6,0.9,0.7,1.8,0.5,2.8c-0.1,0.4-0.3,0.7-0.5,1
		c-0.4,0.8-1.1,1.2-1.7,2c-0.1,0.2-0.2,0.4-0.3,0.7c-0.1,0.3-0.2,0.8,0,1.1c0.1,0.2,0.5,0.5,0.6,0.1c0.1-0.5,0.1-1.5,0.8-1.3
		c0.5,0.1,0.5,0.7,0.6,1.2c0.1,0.5,0.1,1.1-0.4,1.4c-0.5,0.3-1.7,0.2-2.1-0.3c-0.4-0.5-0.5-0.8-0.7-1.3c-0.1-0.4,0.2-1,0.3-1.5
		s0.4-0.9,0.7-1.4c0.4-0.6,0.2-1.2,0.4-1.8c0.1-0.2,0-0.5,0.1-0.8c0.2-0.4,0.2-0.9-0.1-1.2c-0.7-1.1-2.1-0.8-3.1-0.2
		c-0.2,0.1-0.5,0.3-0.6,0.5c-0.4,0.4-0.7,0.8-0.8,1.3c-0.4,1.4-0.4,2.8-0.2,4.2c0.1,0.6,0.7,1.1,1,1.7c0.2,0.5-0.2,0.9-0.6,0.7
		c-0.4-0.2-0.4-0.8-1-0.7c-0.1,0-0.5,0.3-0.5,0.4c-0.1,0-0.1,0-0.1,0.1v0.1c-0.3,0.1-0.6,0.1-0.8-0.1c-0.5-0.8-0.4-0.3,0-1.2
		c0.1-0.4,0.6-0.6,0.7-1c0.3-1.4,0.4-2.7,0.1-4c-0.1-0.5,0-1-0.1-1.5C887.7,174,887.6,173.9,887.6,173.9"/>
	<path class="st0" d="M887.6,173.9c-0.5-0.3-0.7-0.7-0.5-1.2c0.1-0.3,0.4-0.4,0.8-0.3c0.4,0.1,0.7,0.5,1.1,0.7
		c0.1,0.1,0.3-0.1,0.4-0.1c1.2-1.1,2.8-1.2,4.3-0.9c0.8,0.2,1.5,0.4,2,1.1c0.6,0.9,0.7,1.8,0.5,2.8c-0.1,0.4-0.3,0.7-0.5,1
		c-0.4,0.8-1.1,1.2-1.7,2c-0.1,0.2-0.2,0.4-0.3,0.7c-0.1,0.3-0.2,0.8,0,1.1c0.1,0.2,0.5,0.5,0.6,0.1c0.1-0.5,0.1-1.5,0.8-1.3
		c0.5,0.1,0.5,0.7,0.6,1.2c0.1,0.5,0.1,1.1-0.4,1.4c-0.5,0.3-1.7,0.2-2.1-0.3c-0.4-0.5-0.5-0.8-0.7-1.3c-0.1-0.4,0.2-1,0.3-1.5
		s0.4-0.9,0.7-1.4c0.4-0.6,0.2-1.2,0.4-1.8c0.1-0.2,0-0.5,0.1-0.8c0.2-0.4,0.2-0.9-0.1-1.2c-0.7-1.1-2.1-0.8-3.1-0.2
		c-0.2,0.1-0.5,0.3-0.6,0.5c-0.4,0.4-0.7,0.8-0.8,1.3c-0.4,1.4-0.4,2.8-0.2,4.2c0.1,0.6,0.7,1.1,1,1.7c0.2,0.5-0.2,0.9-0.6,0.7
		c-0.4-0.2-0.4-0.8-1-0.7c-0.1,0-0.5,0.3-0.5,0.4c-0.1,0-0.1,0-0.1,0.1v0.1c-0.3,0.1-0.6,0.1-0.8-0.1c-0.5-0.8-0.4-0.3,0-1.2
		c0.1-0.4,0.6-0.6,0.7-1c0.3-1.4,0.4-2.7,0.1-4c-0.1-0.5,0-1-0.1-1.5C887.7,174,887.6,173.9,887.6,173.9"/>
	<path class="st0" d="M901.2,172c1.4,0.2,2.8,0.1,4.2,0.1c0.5,0,1,0,1.5-0.3s1-0.4,1.6-0.4c0,0.2-0.1,0.4-0.2,0.6h-0.1
		c-0.2,0.4-0.1,0.8-0.5,0.8c-1.3,0.2-2.9-0.1-4.2,0.2c-0.5,0.1-0.9,0.5-1.1,1c-0.1,0.2,0.1,0.5,0.1,0.7c0.5-0.1,0.7-0.5,1.1-0.7
		c0.9-0.5,1.8-0.5,2.8-0.3c0.9,0.2,1.3,1,1.6,1.8c0.4,1,0.4,2.2,0,3.2c-0.2,0.5-0.8,0.7-1.1,1.2c-0.1,0.2-0.1,0.5,0,0.8
		c0.2,0.4,0.9,0.4,1.1-0.1c0.1-0.4-0.1-0.9,0.1-1.2s0.8-0.4,1.1,0c0,0,0,0.1,0,0.2l0.1,0.1c0,0.5,0.2,1.2-0.3,1.4
		c-0.9,0.5-1.9,1-2.9,0.5c-0.3-0.1-0.6-0.4-0.6-0.7c-0.1-0.6-0.2-1.2,0-1.6c0.3-0.6,0.4-1.2,0.7-1.8c0.2-0.5,0.2-1.1,0-1.6
		c-0.1-0.5-0.4-0.9-0.9-1.1c-0.4-0.2-1-0.3-1.4-0.1c-0.6,0.3-0.8,0.8-1.1,1.3c-0.5,1-0.6,2.2-0.3,3.3c0.1,0.4,0.5,0.7,0.8,1.2
		c0.1,0.2,0.2,0.4,0.1,0.6c-0.1,0.2-0.4,0.3-0.6,0.2s-0.4-0.2-0.6-0.3c-0.5-0.5-0.9,0.5-1.4,0.4c-0.1,0-0.2-0.1-0.3-0.2
		c0-0.3-0.1-0.7,0-0.9c0.2-0.3,0.5-0.6,0.6-0.9c-0.3,1-0.1-6.2-0.1-5.5c0-0.3-0.2-0.4-0.4-0.7s-0.6-0.5-0.8-0.8s-0.4-0.8,0.1-0.9
		C900.6,171.5,901,171.6,901.2,172L901.2,172"/>
	<path class="st0" d="M901.2,172c1.4,0.2,2.8,0.1,4.2,0.1c0.5,0,1,0,1.5-0.3s1-0.4,1.6-0.4c0,0.2-0.1,0.4-0.2,0.6h-0.1
		c-0.2,0.4-0.1,0.8-0.5,0.8c-1.3,0.2-2.9-0.1-4.2,0.2c-0.5,0.1-0.9,0.5-1.1,1c-0.1,0.2,0.1,0.5,0.1,0.7c0.5-0.1,0.7-0.5,1.1-0.7
		c0.9-0.5,1.8-0.5,2.8-0.3c0.9,0.2,1.3,1,1.6,1.8c0.4,1,0.4,2.2,0,3.2c-0.2,0.5-0.8,0.7-1.1,1.2c-0.1,0.2-0.1,0.5,0,0.8
		c0.2,0.4,0.9,0.4,1.1-0.1c0.1-0.4-0.1-0.9,0.1-1.2s0.8-0.4,1.1,0c0,0,0,0.1,0,0.2l0.1,0.1c0,0.5,0.2,1.2-0.3,1.4
		c-0.9,0.5-1.9,1-2.9,0.5c-0.3-0.1-0.6-0.4-0.6-0.7c-0.1-0.6-0.2-1.2,0-1.6c0.3-0.6,0.4-1.2,0.7-1.8c0.2-0.5,0.2-1.1,0-1.6
		c-0.1-0.5-0.4-0.9-0.9-1.1c-0.4-0.2-1-0.3-1.4-0.1c-0.6,0.3-0.8,0.8-1.1,1.3c-0.5,1-0.6,2.2-0.3,3.3c0.1,0.4,0.5,0.7,0.8,1.2
		c0.1,0.2,0.2,0.4,0.1,0.6c-0.1,0.2-0.4,0.3-0.6,0.2s-0.4-0.2-0.6-0.3c-0.5-0.5-0.9,0.5-1.4,0.4c-0.1,0-0.2-0.1-0.3-0.2
		c0-0.3-0.1-0.7,0-0.9c0.2-0.3,0.5-0.6,0.6-0.9c-0.3,1-0.1-6.2-0.1-5.5c0-0.3-0.2-0.4-0.4-0.7s-0.6-0.5-0.8-0.8s-0.4-0.8,0.1-0.9
		C900.6,171.5,901,171.6,901.2,172L901.2,172"/>
	<path class="st0" d="M913.8,177.8c0.5,0,0.9-0.4,0.9-0.9s-0.4-0.9-0.9-0.9s-0.9,0.4-0.9,0.9C912.9,177.4,913.3,177.8,913.8,177.8"
		/>
	<path class="st0" d="M917.1,180.2c0-0.1,0-0.2,0-0.2c0.9-0.8,1.4-2,1.4-3.3c0-1.2-0.5-2.3-1.3-3.2l0,0c0.3-0.7,1.2-1.1,0.8-1.9
		c-0.2-0.3-0.7-0.5-0.9-0.2c-0.3,0.3-0.6,0.6-0.9,1c0,0.1-0.2,0.1-0.2,0.1l0,0c-0.6-0.3-1.3-0.5-2-0.5c-0.6,0-1.2,0.1-1.7,0.3l0,0
		l0,0h-0.1l0,0c-0.5-0.5-0.7-1.5-1.5-1.3c-0.3,0.1-0.7,0.5-0.5,0.8c0.2,0.4,0.4,0.8,0.6,1.2c0,0.1,0,0.2,0,0.2
		c-0.9,0.8-1.4,2-1.4,3.3c0,1.2,0.5,2.3,1.3,3.2l0,0c-0.3,0.7-1.2,1.1-0.7,1.9c0.2,0.3,0.7,0.5,0.9,0.2c0.3-0.3,0.6-0.6,0.9-1
		c0-0.1,0.2-0.1,0.2-0.1l0,0c0.6,0.3,1.3,0.5,2,0.5c0.6,0,1.2-0.1,1.7-0.3l0,0l0,0h0.1l0,0c0.5,0.5,0.7,1.5,1.5,1.3
		c0.3-0.1,0.7-0.5,0.5-0.8C917.5,181,917.3,180.6,917.1,180.2 M913.8,180.2c-1.5,0-2.7-1.6-2.7-3.6s1.2-3.6,2.7-3.6s2.7,1.6,2.7,3.6
		C916.5,178.6,915.3,180.2,913.8,180.2z"/>
	<path class="st0" d="M917.1,180.2c0-0.1,0-0.2,0-0.2c0.9-0.8,1.4-2,1.4-3.3c0-1.2-0.5-2.3-1.3-3.2l0,0c0.3-0.7,1.2-1.1,0.8-1.9
		c-0.2-0.3-0.7-0.5-0.9-0.2c-0.3,0.3-0.6,0.6-0.9,1c0,0.1-0.2,0.1-0.2,0.1l0,0c-0.6-0.3-1.3-0.5-2-0.5c-0.6,0-1.2,0.1-1.7,0.3l0,0
		l0,0h-0.1l0,0c-0.5-0.5-0.7-1.5-1.5-1.3c-0.3,0.1-0.7,0.5-0.5,0.8c0.2,0.4,0.4,0.8,0.6,1.2c0,0.1,0,0.2,0,0.2
		c-0.9,0.8-1.4,2-1.4,3.3c0,1.2,0.5,2.3,1.3,3.2l0,0c-0.3,0.7-1.2,1.1-0.7,1.9c0.2,0.3,0.7,0.5,0.9,0.2c0.3-0.3,0.6-0.6,0.9-1
		c0-0.1,0.2-0.1,0.2-0.1l0,0c0.6,0.3,1.3,0.5,2,0.5c0.6,0,1.2-0.1,1.7-0.3l0,0l0,0h0.1l0,0c0.5,0.5,0.7,1.5,1.5,1.3
		c0.3-0.1,0.7-0.5,0.5-0.8C917.5,181,917.3,180.6,917.1,180.2 M913.8,180.2c-1.5,0-2.7-1.6-2.7-3.6s1.2-3.6,2.7-3.6s2.7,1.6,2.7,3.6
		C916.5,178.6,915.3,180.2,913.8,180.2z"/>
	<path class="st0" d="M913.8,177.8c0.5,0,0.9-0.4,0.9-0.9s-0.4-0.9-0.9-0.9s-0.9,0.4-0.9,0.9C912.9,177.4,913.3,177.8,913.8,177.8"
		/>
	<path class="st0" d="M926.3,172.3c-0.1,0.1-0.1,0.3-0.1,0.4c-0.3,0.8-0.3,1.6-0.5,2.5c-0.1,0.4-0.2,0.8-0.4,1.1
		c-0.2,0.4-0.4,0.9-0.8,1.2c-0.1,0-0.2,0.1-0.3,0.1c-0.5,0-1.1,0.2-1.6-0.1s-0.8-0.7-0.7-1.4c0.1-0.5,0.6-0.6,1-0.5
		c0.3,0.1,0.4,0.5,0.8,0.5c1.3,0.3,1.3-1.5,1.4-2.4c-0.7-0.5-1.8-0.5-2.6-0.3c-1,0.3-1.5,1.3-1.4,2.3c0,0.1-0.1,0.2-0.1,0.3
		c-0.1,0.6,0,1.1,0,1.7c0,0.1,0.1,0.1,0.1,0.2c0,0.6,0.2,1.2,0.6,1.7c0.6,0.7,1.6,1,2.3,0.6c0.3-0.2,0.6-0.4,0.7-0.8
		c0-0.2,0.4-0.2,0.3-0.5c0-0.1,0-0.4-0.1-0.4c0-0.2-0.1-0.2-0.1-0.4c0.1-0.3,0.5-0.3,0.7-0.2c0.3,0.1,0.2,0.5,0.3,0.8
		c0.1,0.4-0.1,0.8-0.3,1.2s-0.2,0.8-0.5,1c-1,0.7-2.2,0.5-3.3,0.3c-0.9-0.2-1.5-0.7-2-1.5c-0.2-0.3-0.5-0.9-0.5-1.3
		c-0.2,0,0.1-0.4-0.1-0.4c0.1-1.1-0.2-2.8,0.5-3.7c0.4-0.6,0.8-0.8,1.3-1.3c0.4-0.3,1.1-0.6,1.6-0.7c1.1-0.3,2.1-0.2,2.9,0.7
		C925.4,172.8,925.6,172.1,926.3,172.3"/>
	<path class="st0" d="M926.3,172.3c-0.1,0.1-0.1,0.3-0.1,0.4c-0.3,0.8-0.3,1.6-0.5,2.5c-0.1,0.4-0.2,0.8-0.4,1.1
		c-0.2,0.4-0.4,0.9-0.8,1.2c-0.1,0-0.2,0.1-0.3,0.1c-0.5,0-1.1,0.2-1.6-0.1s-0.8-0.7-0.7-1.4c0.1-0.5,0.6-0.6,1-0.5
		c0.3,0.1,0.4,0.5,0.8,0.5c1.3,0.3,1.3-1.5,1.4-2.4c-0.7-0.5-1.8-0.5-2.6-0.3c-1,0.3-1.5,1.3-1.4,2.3c0,0.1-0.1,0.2-0.1,0.3
		c-0.1,0.6,0,1.1,0,1.7c0,0.1,0.1,0.1,0.1,0.2c0,0.6,0.2,1.2,0.6,1.7c0.6,0.7,1.6,1,2.3,0.6c0.3-0.2,0.6-0.4,0.7-0.8
		c0-0.2,0.4-0.2,0.3-0.5c0-0.1,0-0.4-0.1-0.4c0-0.2-0.1-0.2-0.1-0.4c0.1-0.3,0.5-0.3,0.7-0.2c0.3,0.1,0.2,0.5,0.3,0.8
		c0.1,0.4-0.1,0.8-0.3,1.2s-0.2,0.8-0.5,1c-1,0.7-2.2,0.5-3.3,0.3c-0.9-0.2-1.5-0.7-2-1.5c-0.2-0.3-0.5-0.9-0.5-1.3
		c-0.2,0,0.1-0.4-0.1-0.4c0.1-1.1-0.2-2.8,0.5-3.7c0.4-0.6,0.8-0.8,1.3-1.3c0.4-0.3,1.1-0.6,1.6-0.7c1.1-0.3,2.1-0.2,2.9,0.7
		C925.4,172.8,925.6,172.1,926.3,172.3"/>
	<path class="st0" d="M934.1,193.4c0.2-0.2-0.1-0.4-0.4-0.4v0.1c-0.3,0.1-0.3,0.4-0.7,0.5v0.1c-0.2,0-0.1,0.3-0.3,0.2
		c-0.2-0.1-0.6-0.4-0.8-0.4c-1.2-0.3-2.5-0.6-3.7,0c-0.3,0.2-0.6,0.7-0.8,1.2c-0.2,0.5-0.2,1-0.2,1.5c0,0.2,0.1,0.4,0.1,0.5
		c0.7,1.3,2,2,3.2,2.6c0,0.8-0.9,0.4-1.4,0.7c0.7,0.7,0.7,0.5,1.1,0.5c0.6,0.1,1.3-0.4,1.3-0.9c0.5,0.4,1.1,1.2,0.7,1.7
		c-0.3,0.3-0.9,0.8-1.4,0.9c-0.4,0.1-0.7,0.1-1-0.1c-0.3-0.1-0.5-0.3-0.8-0.5c-0.2-0.2-0.5-0.4-0.6-0.6c-0.1-0.3-0.3-0.6-0.2-0.9
		c-0.2,0.3-0.4,0.7-0.7,0.9c-0.1,0.1-0.3,0.5-0.4,0.5c-0.3,0.1-0.7,0.1-1,0c-0.4-0.1-0.8-0.6-1.1-0.4c-0.3,0.2-0.1,0.8-0.1,1.2
		c0.1,0.4,1.1-0.1,1.5-0.2c0.8-0.3,1.1-0.3,1.7-1c0,0.1,0.1,0.6,0.1,0.7c0,0.1,0.1,0.1,0.1,0.1c0,0.1,0,0.2,0,0.2
		c1.4,0.7,2.1,1.2,3.6,0.6c0.3-0.1,0.9-0.4,1.1-0.7c0.5-1.2,1.2-1.1,0.6-3.6c-0.1-0.3-0.3-0.7-0.6-0.9c-0.2-0.1-0.3-0.2-0.5-0.4l0,0
		C933.1,195.9,933.1,194.5,934.1,193.4 M930.3,196.2c-0.4-0.1-0.7-0.4-1-0.7s-0.5-0.8-0.3-1.3c0-0.1,0.1-0.2,0.3-0.3
		c0.7-0.2,1.3,0,1.8,0.3c0.3,0.2,1.1,0.6,1.3,1c0.2,0.6-0.1,0.8-0.5,1.6C931.4,196.6,930.9,196.4,930.3,196.2z"/>
	<path class="st0" d="M934.1,193.4c0.2-0.2-0.1-0.4-0.4-0.4v0.1c-0.3,0.1-0.3,0.4-0.7,0.5v0.1c-0.2,0-0.1,0.3-0.3,0.2
		c-0.2-0.1-0.6-0.4-0.8-0.4c-1.2-0.3-2.5-0.6-3.7,0c-0.3,0.2-0.6,0.7-0.8,1.2c-0.2,0.5-0.2,1-0.2,1.5c0,0.2,0.1,0.4,0.1,0.5
		c0.7,1.3,2,2,3.2,2.6c0,0.8-0.9,0.4-1.4,0.7c0.7,0.7,0.7,0.5,1.1,0.5c0.6,0.1,1.3-0.4,1.3-0.9c0.5,0.4,1.1,1.2,0.7,1.7
		c-0.3,0.3-0.9,0.8-1.4,0.9c-0.4,0.1-0.7,0.1-1-0.1c-0.3-0.1-0.5-0.3-0.8-0.5c-0.2-0.2-0.5-0.4-0.6-0.6c-0.1-0.3-0.3-0.6-0.2-0.9
		c-0.2,0.3-0.4,0.7-0.7,0.9c-0.1,0.1-0.3,0.5-0.4,0.5c-0.3,0.1-0.7,0.1-1,0c-0.4-0.1-0.8-0.6-1.1-0.4c-0.3,0.2-0.1,0.8-0.1,1.2
		c0.1,0.4,1.1-0.1,1.5-0.2c0.8-0.3,1.1-0.3,1.7-1c0,0.1,0.1,0.6,0.1,0.7c0,0.1,0.1,0.1,0.1,0.1c0,0.1,0,0.2,0,0.2
		c1.4,0.7,2.1,1.2,3.6,0.6c0.3-0.1,0.9-0.4,1.1-0.7c0.5-1.2,1.2-1.1,0.6-3.6c-0.1-0.3-0.3-0.7-0.6-0.9c-0.2-0.1-0.3-0.2-0.5-0.4l0,0
		C933.1,195.9,933.1,194.5,934.1,193.4 M930.3,196.2c-0.4-0.1-0.7-0.4-1-0.7s-0.5-0.8-0.3-1.3c0-0.1,0.1-0.2,0.3-0.3
		c0.7-0.2,1.3,0,1.8,0.3c0.3,0.2,1.1,0.6,1.3,1c0.2,0.6-0.1,0.8-0.5,1.6C931.4,196.6,930.9,196.4,930.3,196.2z"/>
	<path class="st0" d="M947.5,193.6c-0.4,0.7-1.2,0.8-1.8,0.5c-1-0.5-2.1-0.4-3.2-0.3c-1.2,0.1-2.5,1.1-2.6,2.4l-0.1,0.1
		c0,0.3-0.1,0.6-0.2,0.8c-0.1,0.2-0.1,0.3-0.1,0.5c-0.1,0.7-0.1,1.3-0.1,2c0,0.4,0.4,1,0.6,1.4c0.3,0.5,0.3,0.8,0.8,1.1
		c1.4,0.9,2.3,1.1,3.5,0.9c0.7-0.1,1.2-0.3,1.8-0.7c0.2-0.2,0.4-0.2,0.5-0.4c0.1-0.1,0.4,0.1,0.4,0h0.2c0.1,0.1,0,0.2,0,0.4
		c0.2,0.5,0.8,0.3,1.3,0.2c0,0,0.2-0.3,0.4-0.3c0-0.4,0-0.3-0.1-0.6c-0.1-0.3-0.5-0.4-0.6-0.7c-0.1-1.1-0.2-2.2,0-3.3
		c0.1-0.8,1-0.2,1.6-0.7c0.2-0.1,0-0.2,0.1-0.3c-1.3-0.3-2.5,0.7-3.6,1.4c-0.3,0.2-0.7,0.6-1.2,0.7c0,0.2-0.1,0.3,0,0.4
		c0.3,0.3,1-0.4,1.5-0.4c0,0.1-0.1,0.7-0.1,0.8c0,0.5-0.1,1.1-0.3,1.5c-0.1,0.3-0.4,0.6-0.8,0.7c-0.9,0.3-2,0.5-2.9-0.1
		c-0.7-0.5-1-1.4-1.3-2.3c-0.2-0.6-0.2-1.3-0.1-1.9c0.1-0.9,0.2-1.9,1.1-2.4c1-0.5,2.2-0.8,3.1-0.1c0.2,0.2,0.2,0.5,0.2,0.7
		c0,0.4,0,0.8-0.3,1.2c-0.2,0.3-0.4,0.4-0.6,0.6c-0.4,0.3-0.6,0-0.9-0.5c-0.1-0.1-0.5-0.2-0.6-0.2c0,0.1-0.2,0.6-0.3,0.7l0.1,0.4
		c0.1,0.3-0.2,0.3,0,0.6c0.1,0.2,0.3,0.2,0.5,0.3c0.6,0.1,1-0.3,1.4-0.7c0.3-0.4,0.6-0.6,0.9-1c0.1-0.1,0.5-0.7,0.5-0.9
		c0.6-1,1-1.5,1.9-2.3c0,0,0.1-0.3,0-0.4C948.1,193.3,947.6,193.3,947.5,193.6"/>
	<path class="st0" d="M947.5,193.6c-0.4,0.7-1.2,0.8-1.8,0.5c-1-0.5-2.1-0.4-3.2-0.3c-1.2,0.1-2.5,1.1-2.6,2.4l-0.1,0.1
		c0,0.3-0.1,0.6-0.2,0.8c-0.1,0.2-0.1,0.3-0.1,0.5c-0.1,0.7-0.1,1.3-0.1,2c0,0.4,0.4,1,0.6,1.4c0.3,0.5,0.3,0.8,0.8,1.1
		c1.4,0.9,2.3,1.1,3.5,0.9c0.7-0.1,1.2-0.3,1.8-0.7c0.2-0.2,0.4-0.2,0.5-0.4c0.1-0.1,0.4,0.1,0.4,0h0.2c0.1,0.1,0,0.2,0,0.4
		c0.2,0.5,0.8,0.3,1.3,0.2c0,0,0.2-0.3,0.4-0.3c0-0.4,0-0.3-0.1-0.6c-0.1-0.3-0.5-0.4-0.6-0.7c-0.1-1.1-0.2-2.2,0-3.3
		c0.1-0.8,1-0.2,1.6-0.7c0.2-0.1,0-0.2,0.1-0.3c-1.3-0.3-2.5,0.7-3.6,1.4c-0.3,0.2-0.7,0.6-1.2,0.7c0,0.2-0.1,0.3,0,0.4
		c0.3,0.3,1-0.4,1.5-0.4c0,0.1-0.1,0.7-0.1,0.8c0,0.5-0.1,1.1-0.3,1.5c-0.1,0.3-0.4,0.6-0.8,0.7c-0.9,0.3-2,0.5-2.9-0.1
		c-0.7-0.5-1-1.4-1.3-2.3c-0.2-0.6-0.2-1.3-0.1-1.9c0.1-0.9,0.2-1.9,1.1-2.4c1-0.5,2.2-0.8,3.1-0.1c0.2,0.2,0.2,0.5,0.2,0.7
		c0,0.4,0,0.8-0.3,1.2c-0.2,0.3-0.4,0.4-0.6,0.6c-0.4,0.3-0.6,0-0.9-0.5c-0.1-0.1-0.5-0.2-0.6-0.2c0,0.1-0.2,0.6-0.3,0.7l0.1,0.4
		c0.1,0.3-0.2,0.3,0,0.6c0.1,0.2,0.3,0.2,0.5,0.3c0.6,0.1,1-0.3,1.4-0.7c0.3-0.4,0.6-0.6,0.9-1c0.1-0.1,0.5-0.7,0.5-0.9
		c0.6-1,1-1.5,1.9-2.3c0,0,0.1-0.3,0-0.4C948.1,193.3,947.6,193.3,947.5,193.6"/>
	<path class="st0" d="M936.6,193.6c-0.6-0.2-1.1-0.4-1.6-0.2c-0.3,0.1-0.3,0.6-0.1,0.8c0.2,0.3,0.7,0.2,0.9,0.4
		c0.3,0.3,0.3,0.8,0.4,1.2c0.2,0.8-0.2,1.6,0,2.4c0.1,0.8,0.2,1.7-0.2,2.5c-0.2,0.4-0.8,0.7-1,1.2c-0.1,0.2-0.1,0.5,0,0.6
		c0.1,0.3,0.6,0.5,0.8,0.2c0.8-0.7,1.6-0.6,2.5-0.1c0.3,0.2,0.5-0.1,0.6-0.4c0.1-0.3,0-0.8-0.3-1.1c-0.2-0.2-0.1-0.3-0.4-0.5
		c-0.2-0.1-0.3-0.3-0.4-0.5c-0.2-1.3-0.4-2.5-0.2-3.7c0.1-0.6-0.2-1.2,0.2-1.6c0.2-0.3,0.5-0.5,0.9-0.7c0,0,0-0.1,0-0.2
		c0,0,0.1,0,0.1-0.1c0.1-0.3,0-0.7-0.3-0.8c-0.4-0.2-0.8-0.1-1.2,0.1C937.1,193.5,936.9,193.6,936.6,193.6"/>
	<path class="st0" d="M936.6,193.6c-0.6-0.2-1.1-0.4-1.6-0.2c-0.3,0.1-0.3,0.6-0.1,0.8c0.2,0.3,0.7,0.2,0.9,0.4
		c0.3,0.3,0.3,0.8,0.4,1.2c0.2,0.8-0.2,1.6,0,2.4c0.1,0.8,0.2,1.7-0.2,2.5c-0.2,0.4-0.8,0.7-1,1.2c-0.1,0.2-0.1,0.5,0,0.6
		c0.1,0.3,0.6,0.5,0.8,0.2c0.8-0.7,1.6-0.6,2.5-0.1c0.3,0.2,0.5-0.1,0.6-0.4c0.1-0.3,0-0.8-0.3-1.1c-0.2-0.2-0.1-0.3-0.4-0.5
		c-0.2-0.1-0.3-0.3-0.4-0.5c-0.2-1.3-0.4-2.5-0.2-3.7c0.1-0.6-0.2-1.2,0.2-1.6c0.2-0.3,0.5-0.5,0.9-0.7c0,0,0-0.1,0-0.2
		c0,0,0.1,0,0.1-0.1c0.1-0.3,0-0.7-0.3-0.8c-0.4-0.2-0.8-0.1-1.2,0.1C937.1,193.5,936.9,193.6,936.6,193.6"/>
	<path class="st0" d="M950.9,195.1c-0.5-0.3-0.7-0.7-0.5-1.2c0.1-0.3,0.4-0.4,0.8-0.3c0.4,0.1,0.7,0.5,1.1,0.7
		c0.1,0.1,0.3-0.1,0.4-0.1c1.2-1.1,2.8-1.2,4.3-0.9c0.8,0.2,1.5,0.4,2,1.1c0.6,0.9,0.7,1.8,0.5,2.8c-0.1,0.4-0.3,0.7-0.5,1
		c-0.4,0.8-1.1,1.2-1.7,2c-0.1,0.2-0.2,0.4-0.3,0.6c-0.1,0.3-0.2,0.8,0,1.1c0.1,0.2,0.5,0.5,0.6,0.1c0.1-0.5,0.1-1.4,0.8-1.3
		c0.5,0.1,0.5,0.7,0.6,1.2c0.1,0.5,0.1,1.1-0.4,1.4c-0.5,0.3-1.7,0.2-2.1-0.3c-0.4-0.5-0.5-0.8-0.7-1.3c-0.1-0.4,0.2-1,0.3-1.5
		c0.1-0.5,0.4-0.9,0.7-1.4c0.4-0.6,0.2-1.2,0.4-1.8c0.1-0.2,0-0.5,0.1-0.8c0.2-0.4,0.2-0.9-0.1-1.2c-0.7-1.1-2.1-0.8-3.1-0.2
		c-0.2,0.2-0.5,0.3-0.6,0.5c-0.4,0.4-0.7,0.8-0.8,1.3c-0.4,1.4-0.4,2.8-0.2,4.2c0.1,0.6,0.7,1.1,1,1.7c0.2,0.5-0.2,0.9-0.6,0.7
		c-0.4-0.2-0.4-0.8-1-0.7c-0.1,0-0.5,0.3-0.5,0.4c-0.1,0-0.1,0-0.1,0.1v0.1c-0.3,0.1-0.6,0.1-0.8-0.1c-0.5-0.8-0.4-0.3,0-1.2
		c0.1-0.4,0.6-0.6,0.7-1c0.3-1.4,0.4-2.7,0.1-4c-0.1-0.5,0-1-0.1-1.5C951,195.2,951,195.1,950.9,195.1"/>
	<path class="st0" d="M950.9,195.1c-0.5-0.3-0.7-0.7-0.5-1.2c0.1-0.3,0.4-0.4,0.8-0.3c0.4,0.1,0.7,0.5,1.1,0.7
		c0.1,0.1,0.3-0.1,0.4-0.1c1.2-1.1,2.8-1.2,4.3-0.9c0.8,0.2,1.5,0.4,2,1.1c0.6,0.9,0.7,1.8,0.5,2.8c-0.1,0.4-0.3,0.7-0.5,1
		c-0.4,0.8-1.1,1.2-1.7,2c-0.1,0.2-0.2,0.4-0.3,0.6c-0.1,0.3-0.2,0.8,0,1.1c0.1,0.2,0.5,0.5,0.6,0.1c0.1-0.5,0.1-1.4,0.8-1.3
		c0.5,0.1,0.5,0.7,0.6,1.2c0.1,0.5,0.1,1.1-0.4,1.4c-0.5,0.3-1.7,0.2-2.1-0.3c-0.4-0.5-0.5-0.8-0.7-1.3c-0.1-0.4,0.2-1,0.3-1.5
		c0.1-0.5,0.4-0.9,0.7-1.4c0.4-0.6,0.2-1.2,0.4-1.8c0.1-0.2,0-0.5,0.1-0.8c0.2-0.4,0.2-0.9-0.1-1.2c-0.7-1.1-2.1-0.8-3.1-0.2
		c-0.2,0.2-0.5,0.3-0.6,0.5c-0.4,0.4-0.7,0.8-0.8,1.3c-0.4,1.4-0.4,2.8-0.2,4.2c0.1,0.6,0.7,1.1,1,1.7c0.2,0.5-0.2,0.9-0.6,0.7
		c-0.4-0.2-0.4-0.8-1-0.7c-0.1,0-0.5,0.3-0.5,0.4c-0.1,0-0.1,0-0.1,0.1v0.1c-0.3,0.1-0.6,0.1-0.8-0.1c-0.5-0.8-0.4-0.3,0-1.2
		c0.1-0.4,0.6-0.6,0.7-1c0.3-1.4,0.4-2.7,0.1-4c-0.1-0.5,0-1-0.1-1.5C951,195.2,951,195.1,950.9,195.1"/>
	<path class="st0" d="M965.5,199.5c0.5,0,0.9-0.4,0.9-0.9s-0.4-0.9-0.9-0.9s-0.9,0.4-0.9,0.9C964.5,199.1,965,199.5,965.5,199.5"/>
	<path class="st0" d="M968.6,202c0-0.1,0-0.2,0-0.2c0.9-0.8,1.4-2,1.4-3.3c0-1.2-0.5-2.3-1.3-3.2l0,0c0.3-0.7,1.2-1.1,0.8-1.9
		c-0.2-0.3-0.7-0.5-0.9-0.2c-0.3,0.3-0.6,0.6-0.9,1c0,0.1-0.2,0.1-0.2,0.1l0,0c-0.6-0.3-1.3-0.5-2-0.5c-0.6,0-1.2,0.1-1.7,0.3l0,0
		l0,0h-0.1l0,0c-0.5-0.5-0.7-1.5-1.5-1.3c-0.3,0.1-0.7,0.5-0.5,0.8c0.2,0.4,0.4,0.8,0.6,1.2c0,0.1,0,0.2,0,0.2
		c-0.9,0.8-1.4,2-1.4,3.3c0,1.2,0.5,2.3,1.3,3.2c-0.3,0.7-1.2,1.2-0.7,1.9c0.2,0.3,0.7,0.5,0.9,0.2c0.3-0.3,0.6-0.6,0.9-1
		c0-0.1,0.2-0.1,0.2-0.1l0,0c0.6,0.3,1.3,0.5,2,0.5c0.6,0,1.2-0.1,1.7-0.3l0,0l0,0h0.1l0,0c0.5,0.5,0.7,1.5,1.5,1.3
		c0.3-0.1,0.7-0.5,0.5-0.8C969.1,202.8,968.9,202.4,968.6,202 M965.4,202c-1.5,0-2.7-1.6-2.7-3.6s1.2-3.6,2.7-3.6s2.7,1.6,2.7,3.6
		S966.9,202,965.4,202z"/>
	<path class="st0" d="M968.6,202c0-0.1,0-0.2,0-0.2c0.9-0.8,1.4-2,1.4-3.3c0-1.2-0.5-2.3-1.3-3.2l0,0c0.3-0.7,1.2-1.1,0.8-1.9
		c-0.2-0.3-0.7-0.5-0.9-0.2c-0.3,0.3-0.6,0.6-0.9,1c0,0.1-0.2,0.1-0.2,0.1l0,0c-0.6-0.3-1.3-0.5-2-0.5c-0.6,0-1.2,0.1-1.7,0.3l0,0
		l0,0h-0.1l0,0c-0.5-0.5-0.7-1.5-1.5-1.3c-0.3,0.1-0.7,0.5-0.5,0.8c0.2,0.4,0.4,0.8,0.6,1.2c0,0.1,0,0.2,0,0.2
		c-0.9,0.8-1.4,2-1.4,3.3c0,1.2,0.5,2.3,1.3,3.2c-0.3,0.7-1.2,1.2-0.7,1.9c0.2,0.3,0.7,0.5,0.9,0.2c0.3-0.3,0.6-0.6,0.9-1
		c0-0.1,0.2-0.1,0.2-0.1l0,0c0.6,0.3,1.3,0.5,2,0.5c0.6,0,1.2-0.1,1.7-0.3l0,0l0,0h0.1l0,0c0.5,0.5,0.7,1.5,1.5,1.3
		c0.3-0.1,0.7-0.5,0.5-0.8C969.1,202.8,968.9,202.4,968.6,202 M965.4,202c-1.5,0-2.7-1.6-2.7-3.6s1.2-3.6,2.7-3.6s2.7,1.6,2.7,3.6
		S966.9,202,965.4,202z"/>
	<path class="st0" d="M965.5,199.5c0.5,0,0.9-0.4,0.9-0.9s-0.4-0.9-0.9-0.9s-0.9,0.4-0.9,0.9C964.5,199.1,965,199.5,965.5,199.5"/>
	<path class="st0" d="M923,199.4c0.5,0,0.9-0.4,0.9-0.9s-0.4-0.9-0.9-0.9s-0.9,0.4-0.9,0.9S922.5,199.4,923,199.4"/>
	<path class="st0" d="M973.1,199.6c0.5,0,0.9-0.4,0.9-0.9s-0.4-0.9-0.9-0.9s-0.9,0.4-0.9,0.9C972.2,199.2,972.6,199.6,973.1,199.6"
		/>
	<path class="st0" d="M923,199.4c0.5,0,0.9-0.4,0.9-0.9s-0.4-0.9-0.9-0.9s-0.9,0.4-0.9,0.9S922.5,199.4,923,199.4"/>
	<path class="st0" d="M973.1,199.6c0.5,0,0.9-0.4,0.9-0.9s-0.4-0.9-0.9-0.9s-0.9,0.4-0.9,0.9C972.2,199.2,972.6,199.6,973.1,199.6"
		/>
	<path class="st0" d="M1001.1,202.2c0-2.6,2-4.6,4.6-4.6c2.6,0,4.6,2,4.6,4.6s-2,4.6-4.6,4.6
		C1003.1,206.8,1001.1,204.7,1001.1,202.2 M1009.6,202.2c0-2.3-1.8-4.1-4-4.1s-4,1.8-4,4c0,2.3,1.8,4.1,4,4.1
		C1007.9,206.2,1009.6,204.4,1009.6,202.2z M1004,199.6h1.8c1.2,0,1.8,0.5,1.8,1.4c0,0.8-0.4,1.2-1.1,1.4l1.2,2.2h-0.8l-1.1-2.1
		h-1.1c0,0.3,0,2.1,0,2.1h-0.7C1004,204.6,1004,199.6,1004,199.6z M1005.7,201.9c0.7,0,1.1-0.2,1.1-0.9c0-0.6-0.4-0.8-1.2-0.8h-1
		v1.7H1005.7z"/>
	<g>
		<path class="st0" d="M1044.5,147c-0.2-2.6-0.4-9.9,0-15.2h2.6c2.8,12.2,9.1,17.7,21.2,17.7c9.5,0,16.1-4.8,16.1-13.3
			c0-22.3-40.8-16-40.8-41.8c0-9.9,6.8-19.8,22.8-19.8c11.6,0,20,3.2,21.6,4.6c0.2,2.6,0.4,9.9,0,15.2h-2.6
			c-2.8-12.2-9.1-16.4-19.5-16.4c-8.3,0-14.4,4.9-14.4,12.8c0,22.6,40.8,17.2,40.8,42.1c0,10.3-7,20-24.8,20
			C1054.6,152.8,1046.2,148.4,1044.5,147z"/>
		<path class="st0" d="M1100.8,149c7.1-1.1,7.1-1.1,7.1-9.4v-23.9c0-9,0-9-6.6-12.4v-1.2c2.9-0.7,12.1-2.6,15.1-2.6
			c-0.2,3.7-0.4,7.5-0.4,11.6v28.4c0,8.3,0,8.3,7.1,9.4v2.3h-22.5V149H1100.8z M1105.6,84.4c0-3.4,2.5-6,5.9-6c3.2,0,5.6,2.6,5.6,6
			c0,3-2.5,5.7-5.6,5.7C1108.1,90.1,1105.6,87.4,1105.6,84.4z"/>
		<path class="st0" d="M1168.3,105.6l-0.4,0.5c2.3,2.1,4.2,5.5,4.2,10.5c0,13.2-10.8,19.1-20,19.1c-2.9,0-6-0.5-8.8-1.5
			c-4.7,0.8-5.6,3.3-5.6,6.2c0,4.2,2.8,6.2,10.6,6.2h10.9c12.5,0,18.6,4.2,18.6,14.3c0,12.1-9.6,18-24.6,18
			c-15.9,0-23.9-5.4-23.9-13.7c0-5.7,4.2-9.9,9.9-11.7v-0.8c-4.8-0.8-8.5-4.7-8.5-9.6c0-6,4.4-9.4,9.8-10.2
			c-4.7-2.6-8.2-7.3-8.2-14.5c0-13.5,10.9-19.3,20.1-19.3c6.7,0,7.3,1.8,13.9,1.8c4.6,0,7.4-0.6,11.9-1.2l0.6,0.4
			c0,0.8-0.4,2.1-0.7,2.9c-0.4,0.9-1.4,2.5-1.9,2.7L1168.3,105.6L1168.3,105.6z M1137,164.4c0,5,4.3,10.6,16.6,10.6
			c11.8,0,17.6-4.4,17.6-12.6c0-5.8-4.6-9-13.9-9h-14.6C1138.8,155.5,1137,158.9,1137,164.4z M1163.3,118.3
			c0-9.2-2.9-16.3-11.1-16.3c-8.2,0-10.8,7-10.8,14.5c0,9,3.2,16,11.2,16C1160.8,132.6,1163.3,125.6,1163.3,118.3z"/>
		<path class="st0" d="M1268.5,149v2.3h-22.7V149c7.4-0.8,7.4-0.8,7.4-9.1v-20.2c0-10.2-3.6-15-10.6-15c-3.6,0-7.6,2-12.1,5.4
			c0.4,1.9,0.5,4,0.5,6.4v23.2c0,8.3,0,8.3,7.1,9.4v2.3h-22.7V149c7.4-0.8,7.4-0.8,7.4-9.1v-20.2c0-10.2-3.6-15-10.6-15
			c-3.9,0-8,2.1-12.6,5.8v29.1c0,8.3,0,8.3,7.1,9.4v2.3h-22.5V149c7-1.1,7.1-1.1,7.1-9.4v-23.9c0-9,0-9-6.6-12.4v-1.2
			c2.9-0.7,12.1-2.6,14.7-2.6l-0.7,8l0.5,0.5c3.3-3.3,9.9-9,17.3-9c7.3,0,11.6,2.3,13.5,8.7c3.3-3.3,9.8-8.7,17-8.7
			c9.9,0,14.4,4.3,14.4,17.4v23.2C1261.3,147.9,1261.3,147.9,1268.5,149z"/>
		<path class="st0" d="M1320.3,148.1c-1.2,1.2-4.3,4.7-8.8,4.7c-3.9,0-7.4-1.9-8-9.2c-3.3,5-9,9.4-15.3,9.4
			c-8.2,0-13.7-4.7-13.7-11.8c0-10.2,9.7-13.5,21.1-17.1l8.1-2.6v-5.1c0.1-8.8-2.3-14.2-9.6-14.2c-5.1,0-9,3.3-8.4,13.5
			c-1.8,0.5-8.5,1.6-8.5-4.9c0-5.5,6.3-11.7,18-11.7c11.8,0,17,4.2,16.8,17.1l-0.2,24c0,5.3,1.2,7.6,4.2,7.6c1.4,0,2.7-0.7,3.4-1.2
			L1320.3,148.1z M1303.5,141l0.1-16.1l-4.3,1.5c-9.1,3.2-15.4,5.1-15.9,12.3c-0.2,3.9,1.6,8.7,8.2,8.7
			C1297,147.3,1301,144.2,1303.5,141z"/>
		<path class="st0" d="M1349.6,111.8c0,20.4,9,37.7,28.2,37.7c9.5,0,14.7-4.9,18-18.3h2.9c-0.4,5.9-1.2,15.3-2,18.3
			c-5.1,2.2-14,3.4-20,3.4c-20.1,0-37.1-10.1-37.1-38.4c0-28.7,16.7-39.9,33.6-39.9c12.6,0,21.3,3.2,22.9,4.6
			c0.2,2.6,0.4,9.9,0,15.7h-2.6c-2.8-12.6-9.4-16.8-20.6-16.8C1356.6,77.9,1349.6,93.7,1349.6,111.8z"/>
		<path class="st0" d="M1460.7,149v2.3H1438V149c7.4-0.8,7.4-0.8,7.4-9.1v-20.2c0-10.2-3.6-15-10.6-15c-3.9,0-8,2.1-12.6,5.8v29.1
			c0,8.3,0,8.3,7.1,9.4v2.3h-22.5V149c7.1-1.1,7.1-1.1,7.1-9.4V86.1c0-9,0-9-6.6-12.4v-1.2c2.9-0.7,12.1-2.6,15.1-2.6
			c-0.2,3.7-0.4,7.5-0.4,11.6v26.2c3.4-3.3,9.8-8.8,17.1-8.8c9.9,0,14.4,4.3,14.4,17.4v23.2C1453.6,147.9,1453.6,147.9,1460.7,149z"
			/>
		<path class="st0" d="M1468.5,149c7.1-1.1,7.1-1.1,7.1-9.4v-23.9c0-9,0-9-6.6-12.4v-1.2c2.9-0.7,12.1-2.6,15.1-2.6
			c-0.2,3.7-0.4,7.5-0.4,11.6v28.4c0,8.3,0,8.3,7.1,9.4v2.3h-22.5V149H1468.5z M1473.3,84.4c0-3.4,2.5-6,5.9-6c3.2,0,5.6,2.6,5.6,6
			c0,3-2.5,5.7-5.6,5.7C1475.8,90.1,1473.3,87.4,1473.3,84.4z"/>
	</g>
	<g>
		<path class="st25" d="M1323.4,201.4h-9.2c-0.9,0-1.3-0.5-1.3-1.3v-25c0-0.8,0.4-1.3,1.3-1.3h9c0.9,0,1.3,0.5,1.3,1.3v0.7
			c0,0.9-0.4,1.3-1.3,1.3h-6.6v8.7h5.4c0.9,0,1.3,0.5,1.3,1.3v0.7c0,0.8-0.4,1.3-1.3,1.3h-5.4v9.1h6.8c0.9,0,1.3,0.4,1.3,1.3v0.7
			C1324.7,201,1324.2,201.4,1323.4,201.4z"/>
		<path class="st25" d="M1340.6,175.3l-4.4,12l5,12.6c0.4,0.9,0,1.5-1,1.5h-1.2c-0.8,0-1.3-0.4-1.5-1.1l-3.6-9.8l-3.5,9.8
			c-0.2,0.8-0.8,1.1-1.5,1.1h-1.1c-0.9,0-1.4-0.6-1-1.5l5.1-12.7l-4.7-12c-0.3-0.9,0.1-1.5,1.1-1.5h1.1c0.8,0,1.2,0.3,1.5,1.1l3.2,9
			l3-9c0.2-0.7,0.8-1.1,1.5-1.1h1.1C1340.5,173.8,1341,174.4,1340.6,175.3z"/>
		<path class="st25" d="M1358.1,179.6v4.9c0,4.1-2.5,5.8-6.7,5.8h-3.2v9.7c0,0.8-0.5,1.3-1.3,1.3h-1.2c-0.9,0-1.3-0.5-1.3-1.3v-25
			c0-0.8,0.4-1.3,1.3-1.3h5.6C1355.5,173.8,1358.1,175.6,1358.1,179.6z M1354.3,180.3c0-2.4-1.1-3.3-3.2-3.3h-3v10h3
			c2.1,0,3.2-0.8,3.2-3.2V180.3z"/>
		<path class="st25" d="M1371.9,201.4h-9.2c-0.9,0-1.3-0.5-1.3-1.3v-25c0-0.8,0.4-1.3,1.3-1.3h9c0.9,0,1.3,0.5,1.3,1.3v0.7
			c0,0.9-0.4,1.3-1.3,1.3h-6.6v8.7h5.4c0.9,0,1.3,0.5,1.3,1.3v0.7c0,0.8-0.4,1.3-1.3,1.3h-5.4v9.1h6.8c0.9,0,1.3,0.4,1.3,1.3v0.7
			C1373.2,201,1372.8,201.4,1371.9,201.4z"/>
		<path class="st25" d="M1389.9,191.6v4.3c0,4.1-2.5,5.8-6.7,5.8h-0.1c-4.2,0-6.7-1.7-6.7-5.8v-16.6c0-4,2.5-5.8,6.7-5.8h0.1
			c4.2,0,6.7,1.9,6.7,5.8v3.6c0,0.8-0.4,1.3-1.3,1.3h-1.1c-0.8,0-1.3-0.5-1.3-1.3V180c0-2.4-1-3.3-3-3.3s-3,0.9-3,3.3v15.2
			c0,2.4,1,3.3,3,3.3s3-0.9,3-3.3v-3.6c0-0.8,0.5-1.3,1.3-1.3h1.1C1389.4,190.3,1389.9,190.8,1389.9,191.6z"/>
		<path class="st25" d="M1405.3,175.1v0.7c0,0.9-0.4,1.3-1.3,1.3h-3.5v23.1c0,0.8-0.5,1.3-1.3,1.3h-1.1c-0.8,0-1.3-0.5-1.3-1.3
			v-23.1h-3.5c-0.8,0-1.3-0.4-1.3-1.3v-0.7c0-0.8,0.5-1.3,1.3-1.3h10.7C1404.9,173.8,1405.3,174.2,1405.3,175.1z"/>
		<path class="st25" d="M1424.7,196.1c-0.2,0.8-0.7,1.1-1.4,1.1c-0.7,0-1.2-0.3-1.4-1.1l-4.6-13.5v17.5c0,0.8-0.5,1.3-1.3,1.3h-0.8
			c-0.9,0-1.3-0.5-1.3-1.3v-25c0-0.8,0.4-1.3,1.3-1.3h1.1c0.8,0,1.3,0.4,1.5,1.1l5.5,16.1l5.6-16.1c0.2-0.7,0.7-1.1,1.5-1.1h1.3
			c0.9,0,1.3,0.5,1.3,1.3v25c0,0.8-0.4,1.3-1.3,1.3h-1c-0.8,0-1.3-0.5-1.3-1.3v-17.5L1424.7,196.1z"/>
		<path class="st25" d="M1443.9,173.5h0.3c4.2,0,6.7,1.8,6.7,5.8v16.6c0,4.1-2.5,5.8-6.7,5.8h-0.3c-4.2,0-6.7-1.8-6.7-5.8v-16.6
			C1437.1,175.2,1439.7,173.5,1443.9,173.5z M1444,198.5c2.1,0,3.2-0.8,3.2-3.3V180c0-2.4-1.1-3.3-3.2-3.3s-3.2,0.8-3.2,3.3v15.2
			C1440.9,197.6,1442,198.5,1444,198.5z"/>
		<path class="st25" d="M1468.1,201.4h-1.1c-0.8,0-1.2-0.3-1.5-1.1L1462,190l0,0h-3.2v10c0,0.8-0.5,1.3-1.3,1.3h-1.1
			c-0.9,0-1.3-0.5-1.3-1.3v-25c0-0.8,0.4-1.3,1.3-1.3h5.6c4.2,0,6.7,1.8,6.7,5.8v4.6c0,2.8-1.2,4.5-3.2,5.3l3.7,10.4
			C1469.5,200.8,1469.1,201.4,1468.1,201.4z M1458.9,186.8h3c2.1,0,3.2-0.8,3.2-3.3v-3.2c0-2.4-1.1-3.3-3.2-3.3h-3V186.8z"/>
		<path class="st25" d="M1483.4,201.4h-9.2c-0.9,0-1.3-0.5-1.3-1.3v-25c0-0.8,0.4-1.3,1.3-1.3h9c0.9,0,1.3,0.5,1.3,1.3v0.7
			c0,0.9-0.4,1.3-1.3,1.3h-6.5v8.7h5.4c0.9,0,1.3,0.5,1.3,1.3v0.7c0,0.8-0.4,1.3-1.3,1.3h-5.4v9.1h6.8c0.9,0,1.3,0.4,1.3,1.3v0.7
			C1484.7,201,1484.3,201.4,1483.4,201.4z"/>
		<path class="st25" d="M1491.2,198.4v1.7c0,0.8-0.4,1.3-1.3,1.3h-1.1c-0.8,0-1.3-0.5-1.3-1.3v-1.7c0-0.8,0.5-1.3,1.3-1.3h1.1
			C1490.8,197.1,1491.2,197.6,1491.2,198.4z"/>
	</g>
	<path class="st26" d="M17.2,42.7c-5.8,0-10.1-1.4-12.8-4.4c-2.7-2.9-4-6.9-4-12.1V0.7h7v24.8c0,3.9,0.8,6.7,2.4,8.6
		c1.6,1.8,4.1,2.7,7.7,2.7c3.3,0,5.8-1,7.3-2.9c1.5-1.9,2.3-4.5,2.3-7.7V0.7h6.5v24.9c0,5.4-1.3,9.6-4,12.5
		C26.8,41.1,22.7,42.7,17.2,42.7z M42.2,0.7h7L66,25c1.1,1.6,2,3,2.7,4.1c0.7,1.2,1.2,1.9,1.4,2.4h0.1c0-0.3-0.1-1-0.1-2.1
		S70,27,70,25.5V0.7h6.4v41.2H70L52,16.1c-0.9-1.2-1.7-2.4-2.2-3.4c-0.6-1.1-1.1-1.8-1.4-2.3h-0.1c0,0.3,0.1,1,0.1,1.9
		c0.1,0.9,0.1,2,0.1,3.1v26.5h-6.4C42.2,41.9,42.2,0.7,42.2,0.7z M85.7,0.7h7v41.2h-7C85.7,41.9,85.7,0.7,85.7,0.7z M97.7,0.7h7.6
		l9.5,26.3c0.6,1.6,1.1,3.1,1.4,4.4c0.4,1.3,0.6,2.2,0.9,2.6h0.1c0.2-0.5,0.4-1.4,0.8-2.7c0.4-1.3,0.9-2.7,1.4-4.3l9.2-26.3h7
		l-15.3,41.2h-6.7L97.7,0.7z M140.2,0.7h22.6v5.8h-15.6v11h13.8v5.6h-13.8v13h16.1v5.8h-23C140.2,41.9,140.2,0.7,140.2,0.7z
		 M170.2,0.7h12.6c4.6,0,8.2,1,10.7,2.9c2.5,1.9,3.8,4.8,3.8,8.5c0,1.7-0.3,3.2-0.8,4.5c-0.6,1.3-1.3,2.4-2.3,3.3
		c-0.9,0.9-2.1,1.6-3.3,2.1c-1.3,0.5-2.6,0.9-4,1.1v0.1c0.5,0.3,1.1,0.9,1.8,1.7c0.7,0.8,1.6,2.1,2.8,3.8l9,13.1h-7.8l-7.8-11.7
		c-1-1.4-1.8-2.5-2.4-3.3s-1.2-1.4-1.7-1.9c-0.5-0.4-0.9-0.7-1.4-0.8c-0.4-0.1-0.9-0.1-1.5-0.1h-0.6v17.9h-7L170.2,0.7L170.2,0.7z
		 M182.6,18.8c2.7,0,4.6-0.6,5.9-1.7c1.2-1.1,1.9-2.7,1.9-4.7s-0.6-3.6-1.9-4.7c-1.3-1.1-3.4-1.6-6.2-1.6h-5v12.6L182.6,18.8
		L182.6,18.8z M214.3,42.7c-1.6,0-3.1-0.1-4.4-0.4c-1.3-0.3-2.5-0.6-3.5-1.1c-1-0.4-1.9-0.9-2.6-1.4c-0.7-0.5-1.3-0.9-1.7-1.3
		l3.2-4.9c0.2,0.2,0.6,0.5,1.1,0.9s1.1,0.7,1.9,1.1c0.7,0.4,1.6,0.7,2.7,1c1,0.3,2.2,0.4,3.5,0.4c2.3,0,4.1-0.6,5.4-1.7
		c1.3-1.1,1.9-2.5,1.9-4c0-1.1-0.3-2-0.8-2.7c-0.5-0.8-1.2-1.4-2.1-2c-0.9-0.6-1.9-1.2-3-1.7c-1.1-0.5-2.3-1.1-3.5-1.7
		c-1.3-0.6-2.5-1.3-3.6-2c-1.1-0.7-2.1-1.5-2.9-2.5s-1.5-2-2-3.2c-0.5-1.2-0.7-2.7-0.7-4.4c0-1.7,0.4-3.3,1-4.6
		c0.7-1.4,1.6-2.5,2.7-3.5s2.5-1.7,4-2.2c1.5-0.5,3.2-0.7,4.9-0.7c1.6,0,3,0.1,4.3,0.4c1.3,0.2,2.4,0.6,3.3,0.9s1.7,0.7,2.4,1.1
		s1.2,0.7,1.5,1l-3,4.9c-0.7-0.5-1.7-1.1-3.2-1.7c-1.4-0.6-3.1-1-5.1-1c-1.9,0-3.4,0.4-4.5,1.4c-1.2,0.9-1.7,2.2-1.7,3.8
		c0,0.9,0.2,1.7,0.6,2.3c0.4,0.6,0.9,1.2,1.6,1.8c0.6,0.5,1.4,1,2.4,1.4c0.9,0.4,1.9,0.9,3,1.4c1.4,0.6,2.7,1.3,4,2
		c1.3,0.7,2.5,1.6,3.6,2.6c1.1,1,1.9,2.2,2.6,3.5c0.6,1.4,1,3,1,5c0,1.8-0.4,3.4-1,4.8c-0.7,1.4-1.7,2.7-2.9,3.7
		c-1.2,1-2.7,1.8-4.5,2.4C218.4,42.4,216.5,42.7,214.3,42.7z M235.2,0.7h7v41.2h-7V0.7z M258.8,6.5h-11.5V0.7h30v5.8h-11.4v35.4h-7
		L258.8,6.5L258.8,6.5z M292.3,26.3L278.5,0.7h7.8l9.7,19.1h0.1l9.7-19.1h6.8l-13.4,25.6v15.6h-7C292.3,41.9,292.3,26.3,292.3,26.3z
		 M346.4,42.7c-3.3,0-6.3-0.6-8.9-1.8c-2.6-1.2-4.7-2.7-6.5-4.7c-1.8-1.9-3.2-4.2-4.1-6.8c-0.9-2.6-1.4-5.2-1.4-8
		c0-2.8,0.4-5.5,1.4-8.1c0.9-2.6,2.2-4.8,4-6.8c1.8-2,3.9-3.5,6.5-4.7c2.6-1.2,5.5-1.8,8.8-1.8c3.3,0,6.3,0.6,8.9,1.7
		c2.6,1.2,4.8,2.7,6.5,4.7c1.7,1.9,3.1,4.2,4,6.8c0.9,2.6,1.4,5.2,1.4,8.1s-0.4,5.5-1.4,8.1c-0.9,2.6-2.2,4.9-4,6.9
		c-1.7,2-3.9,3.6-6.5,4.7C352.6,42.1,349.7,42.7,346.4,42.7z M346.2,37c2.3,0,4.2-0.4,5.9-1.3c1.7-0.9,3.1-2,4.2-3.4
		c1.1-1.4,1.9-3.1,2.5-5c0.6-1.9,0.8-3.9,0.8-6s-0.3-4.1-0.8-6c-0.5-1.9-1.4-3.6-2.5-5s-2.5-2.6-4.2-3.4c-1.7-0.9-3.6-1.3-5.8-1.3
		c-2.2,0-4.2,0.4-5.9,1.2s-3.1,1.9-4.2,3.4c-1.2,1.4-2,3.1-2.6,5s-0.9,3.9-0.9,6s0.3,4.1,0.8,6s1.4,3.6,2.5,5
		c1.1,1.5,2.5,2.6,4.2,3.5C342,36.5,344,37,346.2,37z M373.5,0.7h22.7v5.8h-15.7V18h13.8v5.6h-13.8v18.3h-7
		C373.5,41.9,373.5,0.7,373.5,0.7z M431.6,42.7c-3.4,0-6.3-0.6-8.9-1.8c-2.6-1.2-4.7-2.7-6.5-4.7s-3-4.2-3.9-6.8
		c-0.9-2.6-1.3-5.3-1.3-8.1s0.4-5.5,1.4-8c0.9-2.6,2.2-4.8,4-6.8c1.7-1.9,3.9-3.5,6.5-4.7c2.6-1.2,5.6-1.8,8.9-1.8
		c2.7,0,5,0.3,6.8,0.8c1.9,0.6,3.6,1.4,5.2,2.4l-3.3,5.1c-1.2-0.8-2.5-1.4-3.9-1.9c-1.4-0.4-3.1-0.7-5-0.7c-2.2,0-4.1,0.4-5.8,1.2
		s-3,1.9-4.1,3.3c-1.1,1.4-1.9,3-2.5,4.9s-0.8,3.8-0.8,5.8c0,2.1,0.3,4.1,0.8,6c0.6,1.9,1.4,3.6,2.5,5c1.1,1.5,2.5,2.6,4.2,3.5
		c1.7,0.9,3.6,1.3,5.9,1.3c2.2,0,4.1-0.3,5.7-1c1.5-0.6,2.9-1.4,4-2.3l3,4.9c-0.5,0.5-1.2,1-2.1,1.5c-0.9,0.5-1.8,1-2.9,1.4
		s-2.3,0.7-3.6,1C434.5,42.5,433.1,42.7,431.6,42.7z M462.6,0.7h6.7l16,41.2h-7.6l-3.2-8.8h-17.5l-3.2,8.8h-7L462.6,0.7z
		 M472.5,27.4l-4.3-11.7c-0.6-1.7-1.1-3.2-1.4-4.3c-0.4-1.2-0.6-2.1-0.9-2.8h-0.1c-0.2,0.7-0.5,1.7-0.9,2.9
		c-0.4,1.2-0.9,2.6-1.4,4.2l-4.3,11.7H472.5z M490.3,0.7h7v35.5H513v5.7h-22.7V0.7z M519.9,0.7h7v41.2h-7V0.7z M535.1,0.7h22.7v5.8
		h-15.7V18h13.8v5.6h-13.8v18.3h-7V0.7z M581.1,42.7c-3.3,0-6.3-0.6-8.9-1.8c-2.6-1.2-4.7-2.7-6.5-4.7c-1.8-1.9-3.2-4.2-4.1-6.8
		c-0.9-2.6-1.4-5.2-1.4-8c0-2.8,0.4-5.5,1.4-8.1c0.9-2.6,2.2-4.8,4-6.8c1.8-2,3.9-3.5,6.5-4.7S577.6,0,581,0c3.3,0,6.3,0.6,8.9,1.7
		s4.8,2.7,6.5,4.7c1.7,1.9,3.1,4.2,4,6.8c0.9,2.6,1.4,5.2,1.4,8.1s-0.4,5.5-1.4,8.1c-0.9,2.6-2.2,4.9-4,6.9c-1.7,2-3.9,3.6-6.5,4.7
		C587.4,42.1,584.5,42.7,581.1,42.7z M581,37c2.3,0,4.2-0.4,5.9-1.3c1.7-0.9,3.1-2,4.2-3.4s1.9-3.1,2.5-5c0.6-1.9,0.8-3.9,0.8-6
		s-0.3-4.1-0.8-6c-0.5-1.9-1.4-3.6-2.5-5C590,8.9,588.6,7.8,587,7c-1.7-0.9-3.6-1.3-5.8-1.3s-4.2,0.4-5.9,1.2s-3.1,1.9-4.2,3.4
		s-2,3.1-2.6,5s-0.9,3.9-0.9,6s0.3,4.1,0.8,6s1.4,3.6,2.5,5c1.1,1.5,2.5,2.6,4.2,3.5C576.8,36.5,578.7,37,581,37z M608.3,0.7h12.6
		c4.6,0,8.2,1,10.7,2.9c2.5,1.9,3.8,4.8,3.8,8.5c0,1.7-0.3,3.2-0.8,4.5c-0.6,1.3-1.3,2.4-2.2,3.3c-0.9,0.9-2.1,1.6-3.3,2.1
		c-1.3,0.5-2.6,0.9-4,1.1v0.1c0.5,0.3,1.1,0.9,1.8,1.7c0.7,0.8,1.6,2.1,2.8,3.8l9,13.1h-7.8l-7.8-11.7c-1-1.4-1.8-2.5-2.4-3.3
		s-1.2-1.4-1.7-1.9c-0.5-0.4-0.9-0.7-1.4-0.8c-0.4-0.1-0.9-0.1-1.5-0.1h-0.6v17.9h-7L608.3,0.7L608.3,0.7z M620.7,18.8
		c2.7,0,4.6-0.6,5.9-1.7c1.2-1.1,1.9-2.7,1.9-4.7s-0.6-3.6-1.9-4.7c-1.3-1.1-3.4-1.6-6.2-1.6h-5v12.6L620.7,18.8L620.7,18.8z
		 M643.2,0.7h7L667.1,25c1.1,1.6,2,3,2.7,4.1c0.7,1.2,1.2,1.9,1.4,2.4h0.1c0-0.3-0.1-1-0.1-2.1c-0.1-1.1-0.1-2.4-0.1-4V0.7h6.4v41.2
		H671l-17.9-25.8c-0.9-1.2-1.7-2.4-2.3-3.4c-0.6-1.1-1.1-1.8-1.4-2.3h-0.1c0,0.3,0.1,1,0.1,1.9s0.1,2,0.1,3.1v26.5h-6.3V0.7z
		 M686.8,0.7h7v41.2h-7V0.7z M714.7,0.7h6.7l16,41.2h-7.6l-3.2-8.8h-17.5l-3.2,8.8h-7L714.7,0.7z M724.5,27.4l-4.3-11.7
		c-0.6-1.7-1.1-3.2-1.4-4.3c-0.4-1.2-0.6-2.1-0.9-2.8h-0.1c-0.2,0.7-0.5,1.7-0.9,2.9c-0.4,1.2-0.9,2.6-1.4,4.2l-4.3,11.7H724.5z"/>
	<path class="st26" d="M400.5,200.2c-8.9-1.5-10-3-13.7-5.7c-12-8.7-45.3-49.8-45.3-49.8c17.7-7.4,28.5-21.9,28.5-38.4
		c0-19.9-19.3-33.9-46.8-33.9c-6.1,0-14.4,0.4-21.1,0.6c-4.8,0.2-8.8,0.4-10.9,0.4c-4.3,0-7.4-0.3-12.4-0.7l-8.4-0.7l0.5,6.5h1.7
		c0.8,0,1,0,2.1,0.2c10.1,1,11.7,3.9,11.7,10.3v99.7c0,6.4-1.7,9.3-11.9,10.3c-0.8,0.2-1.1,0.2-1.9,0.2h-1.7l-0.5,6.4l5-0.3
		c7.6-0.7,12.2-1,15.8-1h7.8c3.7,0,8.2,0.4,15.9,1l5,0.3l-0.5-6.4h-1.7c-0.8,0-1.1,0-2.1-0.2c-10.1-1-11.7-3.9-11.7-10.3v-39.8h15.4
		l58.3,56.8c0,0,5.8-1.2,11.6-1.2c5.7,0,13.2,1.2,13.2,1.2l-0.6-5.5L400.5,200.2z M303.9,140.3V89c0-7.6,0.4-8.3,13.6-8.3
		c24.4,0,35.4,15.2,35.4,30.2c0,12.7-8,23.7-21.4,29.4C331.5,140.3,303.9,140.3,303.9,140.3z M270.6,178.9
		c-5.6,10.2-6.6,14.8-7.7,20.1c-0.4,1.5-0.7,3.1-1.1,4.8l-0.4,1.4l-1.4-0.1c-0.2,0-19.9-0.8-32.2-1c-12.5-0.2-32,0-32,0
		c-3.7,0-8.2,0.4-15.8,1l-5,0.3l0.5-6.4h1.7c0.8,0,1.1,0,1.9-0.2c10.3-1.1,11.9-3.9,11.9-10.4V88.8c0-6.4-1.6-9.3-11.7-10.3
		c-1.1-0.2-1.3-0.2-2.1-0.2h-1.7l-0.5-6.5l5,0.4c7.4,0.6,12.1,1,15.8,1h65.5l4.5,25.8h-6.4l-0.4-1.3c-3.5-13.5-4.5-13.5-15.9-13.7
		l-34.7-0.4v43.1h46.4V137h-46.4v46.2c0,10.1,0,10.1,8.7,10.1h22c14.6,0,17-3,25-15.8l0.5-0.7l7.8-1L270.6,178.9z M503.8,165.6
		l-3.6,30.1l-0.6,0.4C491.6,202,471.2,207,455,207c-43.8,0-75.5-28.1-75.5-66.7c0-39.7,33.2-70.8,75.5-70.8
		c14.5,0,23.5,3.4,30.1,5.9c5,1.9,8.3,3.1,11,1.5l2.6-1.6l1.7,31.2h-5.5l-0.4-1.3c-5.8-19.5-18.1-27.5-42.2-27.5
		c-13.4,0-25.5,5.2-35,15.1c-11.3,11.8-17.3,29-16.6,47.1c1.5,34,25.5,58.6,56.9,58.6c21.3,0,36-5.3,38.8-31.4l0.2-1.6L503.8,165.6
		L503.8,165.6z M601,175.8l-1.7,3.1c-5.6,10.1-6.6,14.7-7.7,20c-0.3,1.5-0.7,3.2-1.2,5l-0.4,1.4l-1.5-0.1c-0.2,0-19.8-0.9-32.2-1.1
		c-12.5-0.2-32,0-32,0c-3.7,0-8.2,0.4-15.8,1.1l-5.1,0.3l0.6-6.4h1.7c0.7,0,1,0,1.8-0.2c10.4-1.1,11.9-3.9,11.9-10.4V88.8
		c0-6.4-1.6-9.3-11.7-10.3c-1-0.2-1.3-0.2-2-0.2h-1.7l-0.6-6.5l5.1,0.4c7.4,0.6,12.1,1,15.8,1H590l4.5,25.8h-6.4l-0.4-1.3
		c-3.6-13.5-4.5-13.5-15.9-13.7l-34.7-0.4v43.2h46.4V137h-46.4v46.2c0,10.1,0,10.1,8.7,10.1h21.9c14.1,0,16.8-2.4,25-15.8l0.5-0.7
		L601,175.8z M662.3,72.2c-8.8,0-41.8,1-42.1,1c-3.8,0-8.5-0.4-15.9-1l-4.9-0.4l0.4,6.5h1.7c0.8,0,1,0,2.1,0.2
		c10.1,1,11.7,3.9,11.7,10.3v99.8c0,6.4-1.6,9.3-11.9,10.4c-0.9,0.2-1.1,0.2-1.9,0.2h-1.7l-0.4,6.4l4.9-0.3
		c7.6-0.7,12.2-1.1,15.8-1.1c0.3,0,31.3,0.4,42.1,0.4c42.3,0,75.5-30,75.5-68.3C737.8,99.1,706,72.2,662.3,72.2z M662,196
		c-26.5,0-29.2-4.7-29.2-16.5V82.1c6-0.2,25.1-0.8,29.2-0.8c32.2,0,55.6,23.3,55.6,55.5C717.7,170,693.3,196,662,196z M154.4,88.4
		v100.2c0,7.3,2.5,9.5,11.8,10.4c1,0.2,1.3,0.2,2.1,0.2h1.4l0.5,6l-4.7-0.4c-7-0.6-11.9-1-15.7-1H142c-3.9,0-8.7,0.4-15.7,1
		l-4.7,0.4l0.5-6h1.4c0.8,0,1.1,0,1.9-0.1c9.4-1,11.9-3.2,11.9-10.5v-76.1l-47.6,92.8H81L33.2,113v75.6c0,7.3,2.5,9.5,11.8,10.4
		c1,0.2,1.3,0.2,2.1,0.2h1.5l0.5,6l-4.7-0.4c-7-0.6-11.9-1-15.8-1h-7.7c-3.9,0-8.7,0.4-15.7,1l-4.7,0.4l0.5-6h1.5
		c0.8,0,1.1,0,1.9-0.1c9.4-1,11.9-3.2,11.9-10.5V88.4c0-7.2-2.5-9.5-11.8-10.5c-1-0.2-1.3-0.2-2.1-0.2H0.9l-0.5-5.9l5.3,0.4
		c6.6,0.6,11.4,1,15.1,1h7.7c3.7,0,8.5-0.4,15.2-1l5.2-0.3l-0.5,5.9h-1.5c-0.8,0-1.1,0-1.9,0.2c-6.3,0.7-9.5,1.9-10.9,4.9
		l51.2,105.2l50.9-105.6c-1.5-2.7-4.7-3.8-10.6-4.5c-1-0.2-1.3-0.2-2.1-0.2h-1.4l-0.5-5.9l5.4,0.4c6.6,0.6,11.4,1,15.1,1h7.7
		c3.7,0,8.5-0.4,15.2-1l5.2-0.3l-0.5,5.9h-1.4c-0.8,0-1.1,0-1.9,0.2C156.9,78.9,154.4,81.1,154.4,88.4z"/>
	<rect x="800.8" class="st27" width="8" height="207"/>
</g>
</svg>
